<?xml version="1.0" encoding="UTF-8"?>
<!DOCTYPE svg PUBLIC "-//W3C//DTD SVG 1.1//EN" "http://www.w3.org/Graphics/SVG/1.1/DTD/svg11.dtd">
<!-- Creator: CorelDRAW (Evaluation Version) -->
<svg xmlns="http://www.w3.org/2000/svg" xml:space="preserve" width="50mm" height="50mm" version="1.1" style="shape-rendering:geometricPrecision; text-rendering:geometricPrecision; image-rendering:optimizeQuality; fill-rule:evenodd; clip-rule:evenodd"
viewBox="0 0 5000 5000"
 xmlns:xlink="http://www.w3.org/1999/xlink"
 xmlns:xodm="http://www.corel.com/coreldraw/odm/2003">
 <defs>
  <style type="text/css">
   <![CDATA[
    .str0 {stroke:#2B2B2A;stroke-width:60;stroke-miterlimit:22.9256}
    .str2 {stroke:#2B2B2A;stroke-width:50;stroke-miterlimit:22.9256}
    .str9 {stroke:#2B2B2A;stroke-width:4;stroke-miterlimit:22.9256}
    .str5 {stroke:#2B2B2A;stroke-width:40;stroke-miterlimit:22.9256}
    .str6 {stroke:#2B2B2A;stroke-width:35;stroke-miterlimit:22.9256}
    .str1 {stroke:#2B2B2A;stroke-width:30;stroke-miterlimit:22.9256}
    .str11 {stroke:#2B2B2A;stroke-width:2;stroke-miterlimit:22.9256}
    .str13 {stroke:#62A375;stroke-width:2;stroke-miterlimit:22.9256}
    .str10 {stroke:#2B2B2A;stroke-width:20;stroke-miterlimit:22.9256}
    .str3 {stroke:#2B2B2A;stroke-width:20;stroke-miterlimit:22.9256}
    .str16 {stroke:#867770;stroke-width:20;stroke-miterlimit:22.9256}
    .str15 {stroke:#86755E;stroke-width:20;stroke-miterlimit:22.9256}
    .str14 {stroke:#62A375;stroke-width:20;stroke-miterlimit:22.9256}
    .str4 {stroke:#2B2B2A;stroke-width:15;stroke-miterlimit:22.9256}
    .str7 {stroke:#2B2B2A;stroke-width:10;stroke-miterlimit:22.9256}
    .str12 {stroke:#62A375;stroke-width:10;stroke-miterlimit:22.9256}
    .str8 {stroke:#2B2B2A;stroke-width:5;stroke-miterlimit:22.9256}
    .fil1 {fill:none}
    .fil0 {fill:white}
    .fil7 {fill:#2B2B2A}
    .fil9 {fill:#867770}
    .fil8 {fill:#86755E}
    .fil4 {fill:#F08684}
    .fil6 {fill:#F07F1B}
    .fil2 {fill:#D7EAD8}
    .fil3 {fill:#A9D4B0}
    .fil5 {fill:#576A8F}
   ]]>
  </style>
 </defs>
 <g id="Layer_x0020_1">
  <metadata id="CorelCorpID_0Corel-Layer"/>
  <rect class="fil0 str0" x="707.43" y="3144.52" width="3379.98" height="1096.21"/>
  <line class="fil1 str0" x1="909.29" y1="3120.18" x2="909.29" y2= "1711.85" />
  <line class="fil1 str0" x1="3927.55" y1="3146.81" x2="3927.55" y2= "1738.49" />
  <polygon class="fil0 str1" points="703.63,1609.23 1097.18,599.38 3860.55,576.55 4157.47,1621.36 "/>
  <line class="fil1 str2" x1="1170.23" y1="3027.46" x2="1167.03" y2= "1572.03" />
  <line class="fil1 str2" x1="3674.11" y1="3053.34" x2="3670.91" y2= "1609.33" />
  <path class="fil2 str3" d="M1230.68 1625.93l-554.42 0c51.5,186.72 207.73,226.92 335.4,190.94 103.96,-29.31 183.2,-110.99 219.02,-190.94z"/>
  <path class="fil0 str3" d="M1742.84 1630.54l-512.64 -10.22c45.21,163.91 176.96,250.6 289.01,219.04 91.24,-25.71 192.19,-138.64 223.63,-208.82z"/>
  <path class="fil2 str3" d="M2214.76 1622.63l-486.68 0c45.2,163.91 182.34,199.19 294.41,167.61 91.27,-25.73 160.83,-97.43 192.27,-167.61z"/>
  <path class="fil0 str3" d="M2698.48 1623.73l-486.68 0c45.21,163.91 182.35,199.2 294.42,167.62 91.26,-25.74 160.82,-97.44 192.26,-167.62z"/>
  <path class="fil2 str3" d="M3167.01 1622.63l-486.69 0c45.21,163.91 182.35,199.19 294.42,167.61 91.26,-25.73 160.82,-97.43 192.27,-167.61z"/>
  <path class="fil0 str3" d="M3629.84 1627.89l-486.68 0c45.21,163.9 182.34,199.19 294.42,167.61 91.26,-25.73 160.82,-97.43 192.26,-167.61z"/>
  <path class="fil2 str3" d="M4135.33 1618.73l-486.68 0c45.2,163.91 182.34,199.19 294.41,167.61 91.27,-25.73 160.83,-97.43 192.27,-167.61z"/>
  <polygon class="fil3 str4" points="679.25,1608.37 1220.21,1610.32 1445.96,595.46 1087.17,598.43 "/>
  <polygon class="fil3 str4" points="2212.72,1604.55 2226.19,827.11 2230.33,588.97 1862.72,592.01 1744.92,1602.89 "/>
  <polygon class="fil3 str4" points="3165.49,1607.88 3015.44,573.55 2643.93,576.61 2702.54,1606.25 "/>
  <polygon class="fil3 str4" points="4157.47,1611.36 3623.26,1609.5 3431.13,585.68 3844.94,567.26 "/>
  <path class="fil1 str5" d="M2283.96 2217.82c142.87,23.64 164.09,119.12 -12.66,138.92 -55.22,6.19 -133.08,6.14 -191.62,4.14 -110.44,-3.78 -214.54,-14.53 -263.85,-40.05 -96.62,-50 14.92,-104.13 82.18,-109.22"/>
  <path class="fil1 str5" d="M1930.41 2252.4c-2.37,-105.45 -18.23,-81.25 -3.2,-157.35 13.24,-67.1 261.25,-48.84 304.94,-15.56 9.48,7.23 16.23,13.49 15.63,41.32 -1.01,46.81 -2.99,98.63 0.23,127.88"/>
  <path class="fil1 str6" d="M1876.55 2425.99c192.96,277.92 393.07,73.2 435.45,8.38"/>
  <path class="fil1 str6" d="M1709.91 3144.53l751.4 9.14c9.14,-263.32 -56,-359.76 -140.31,-415.42 -151.39,-99.9 -337.78,-86.04 -484.34,22.63 -92.02,68.22 -104.27,171.96 -126.75,383.65z"/>
  <g id="_105553484431424">
   <path class="fil4 str7" d="M2759.96 3990.63c9.65,-38.54 35.67,-50.44 78.06,-35.72 30.96,-35.94 81.49,-8.27 97.43,32.98 22.94,59.36 -33.82,99.1 -88.84,99.4 -46.74,0.26 -92.25,-27.91 -86.65,-96.66z"/>
   <path class="fil1 str8" d="M2820.58 3949.91c-1.21,-3.27 -3.03,-5.91 -5.13,-8.65 -1.32,0 9.55,11.18 5.79,3.85 -12.81,-24.91 -2.63,-3.29 9.79,4.34 2.84,1.75 -11.04,-18.82 -4.93,-22.79 1.92,-1.25 3.86,20.22 7.96,20.19 2.41,-0.01 7.46,-22.43 8.8,-21.31 2.9,2.45 -0.82,10.5 3.91,8.38 21.39,-9.59 -8.1,7.64 -8.69,8.86 2.63,0.97 13.53,-2.55 -4.07,6.09"/>
  </g>
  <g id="_105553484436352">
   <path class="fil4 str7" d="M2943.85 3978.72c9.65,-38.54 35.67,-50.44 78.06,-35.72 30.96,-35.94 81.49,-8.27 97.43,32.98 22.94,59.36 -33.82,99.1 -88.84,99.4 -46.74,0.26 -92.25,-27.91 -86.65,-96.66z"/>
   <path class="fil1 str8" d="M3004.47 3938c-1.21,-3.27 -3.03,-5.91 -5.13,-8.65 -1.32,0 9.55,11.18 5.79,3.85 -12.81,-24.91 -2.63,-3.29 9.79,4.34 2.84,1.75 -11.04,-18.82 -4.93,-22.79 1.92,-1.25 3.86,20.22 7.96,20.19 2.41,-0.01 7.46,-22.43 8.8,-21.31 2.9,2.45 -0.82,10.5 3.91,8.38 21.39,-9.59 -8.1,7.64 -8.69,8.86 2.63,0.97 13.53,-2.55 -4.07,6.09"/>
  </g>
  <g id="_105553484259552">
   <path class="fil4 str7" d="M3060.37 3962.19c9.65,-38.54 35.67,-50.44 78.06,-35.72 30.96,-35.94 81.49,-8.27 97.43,32.98 22.94,59.36 -33.82,99.1 -88.84,99.4 -46.74,0.26 -92.25,-27.91 -86.65,-96.66z"/>
   <path class="fil1 str8" d="M3120.99 3921.47c-1.21,-3.27 -3.03,-5.91 -5.13,-8.65 -1.32,0 9.55,11.18 5.79,3.85 -12.81,-24.91 -2.63,-3.29 9.79,4.34 2.84,1.75 -11.04,-18.82 -4.93,-22.79 1.92,-1.25 3.86,20.22 7.96,20.19 2.41,-0.01 7.46,-22.43 8.8,-21.31 2.9,2.45 -0.82,10.5 3.91,8.38 21.39,-9.59 -8.1,7.64 -8.69,8.86 2.63,0.97 13.53,-2.55 -4.07,6.09"/>
  </g>
  <g id="_105553484418336">
   <path class="fil4 str7" d="M3595.44 3972.81c9.65,-38.54 35.67,-50.44 78.06,-35.72 30.96,-35.94 81.49,-8.27 97.43,32.98 22.94,59.36 -33.82,99.1 -88.84,99.4 -46.74,0.26 -92.25,-27.91 -86.65,-96.66z"/>
   <path class="fil1 str8" d="M3656.06 3932.09c-1.21,-3.27 -3.03,-5.91 -5.13,-8.65 -1.32,0 9.55,11.18 5.79,3.85 -12.81,-24.91 -2.63,-3.29 9.79,4.34 2.84,1.75 -11.04,-18.82 -4.93,-22.79 1.92,-1.25 3.86,20.22 7.96,20.19 2.41,-0.01 7.46,-22.43 8.8,-21.31 2.9,2.45 -0.82,10.5 3.91,8.38 21.39,-9.59 -8.1,7.64 -8.69,8.86 2.63,0.97 13.53,-2.55 -4.07,6.09"/>
  </g>
  <g id="_105553484429248">
   <path class="fil4 str7" d="M3711.96 3956.28c9.65,-38.54 35.67,-50.44 78.06,-35.72 30.96,-35.94 81.49,-8.27 97.43,32.98 22.94,59.36 -33.82,99.1 -88.84,99.4 -46.74,0.26 -92.25,-27.91 -86.65,-96.66z"/>
   <path class="fil1 str8" d="M3772.58 3915.56c-1.21,-3.27 -3.03,-5.91 -5.13,-8.65 -1.32,0 9.55,11.18 5.79,3.85 -12.81,-24.91 -2.63,-3.29 9.79,4.34 2.84,1.75 -11.04,-18.82 -4.93,-22.79 1.92,-1.25 3.86,20.22 7.96,20.19 2.41,-0.01 7.46,-22.43 8.8,-21.31 2.9,2.45 -0.82,10.5 3.91,8.38 21.39,-9.59 -8.1,7.64 -8.69,8.86 2.63,0.97 13.53,-2.55 -4.07,6.09"/>
  </g>
  <g id="_105553484138848">
   <path class="fil4 str7" d="M3232.99 3937.7c9.65,-38.54 23.11,-57.06 65.5,-42.34 30.96,-35.94 96.54,-11.23 97.43,32.98 1.45,71.65 -39.85,105.07 -88.84,99.4 -57.13,-6.61 -117.93,-30.46 -74.09,-90.04z"/>
   <path class="fil1 str8" d="M3281.05 3890.36c-1.21,-3.27 -3.03,-5.91 -5.13,-8.65 -1.32,0 9.55,11.18 5.79,3.85 -12.81,-24.91 -2.63,-3.29 9.79,4.34 2.84,1.75 -11.04,-18.82 -4.93,-22.79 1.92,-1.25 3.86,20.22 7.96,20.19 2.41,-0.01 7.46,-22.43 8.8,-21.31 2.9,2.45 -0.82,10.5 3.91,8.38 21.39,-9.59 -8.1,7.64 -8.69,8.86 2.63,0.97 13.53,-2.55 -4.07,6.09"/>
   <path class="fil1 str9" d="M3285.32 3914.28c-33.44,32.15 -20.08,78.14 1.32,68.79"/>
  </g>
  <line class="fil1 str10" x1="741.79" y1="3956.15" x2="4076.83" y2= "3956.15" />
  <rect class="fil0 str3" x="2575.05" y="4009.88" width="1401.77" height="250.85"/>
  <path class="fil5 str7" d="M2250.79 2700.9l70.21 35.67c0,0 6.74,135.69 22.55,388.16l-524.45 1.28c-0.41,-0.97 4.4,-140.35 17.56,-367.82l83.51 -47.57c-0.46,100.17 -0.67,150.73 -0.64,151.7l333.43 1.45c-5,-113.04 -5.71,-167.31 -2.17,-162.87z"/>
  <g id="_105553484824608">
   <path class="fil4 str7" d="M2814.31 3871.44c9.65,-38.54 23.11,-57.06 65.5,-42.34 30.96,-35.94 96.54,-11.23 97.43,32.98 1.45,71.65 -39.85,105.07 -88.84,99.4 -57.13,-6.61 -117.93,-30.46 -74.09,-90.04z"/>
   <path class="fil1 str8" d="M2862.37 3824.1c-1.21,-3.27 -3.03,-5.91 -5.13,-8.65 -1.32,0 9.55,11.18 5.79,3.85 -12.81,-24.91 -2.63,-3.29 9.79,4.34 2.84,1.75 -11.04,-18.82 -4.93,-22.79 1.92,-1.25 3.86,20.22 7.96,20.19 2.41,-0.01 7.46,-22.43 8.8,-21.31 2.9,2.45 -0.82,10.5 3.91,8.38 21.39,-9.59 -8.1,7.64 -8.69,8.86 2.63,0.97 13.53,-2.55 -4.07,6.09"/>
   <path class="fil1 str9" d="M2866.64 3848.02c-33.44,32.15 -20.08,78.14 1.32,68.79"/>
  </g>
  <g id="_105553484825312">
   <path class="fil4 str7" d="M3508.28 3860.06c9.65,-38.54 23.11,-57.06 65.5,-42.34 30.96,-35.94 96.54,-11.23 97.43,32.98 1.45,71.65 -39.85,105.07 -88.84,99.4 -57.13,-6.61 -117.93,-30.46 -74.09,-90.04z"/>
   <path class="fil1 str8" d="M3556.34 3812.72c-1.21,-3.27 -3.03,-5.91 -5.13,-8.65 -1.32,0 9.55,11.18 5.79,3.85 -12.81,-24.91 -2.63,-3.29 9.79,4.34 2.84,1.75 -11.04,-18.82 -4.93,-22.79 1.92,-1.25 3.86,20.22 7.96,20.19 2.41,-0.01 7.46,-22.43 8.8,-21.31 2.9,2.45 -0.82,10.5 3.91,8.38 21.39,-9.59 -8.1,7.64 -8.69,8.86 2.63,0.97 13.53,-2.55 -4.07,6.09"/>
   <path class="fil1 str9" d="M3560.61 3836.64c-33.44,32.15 -20.08,78.14 1.32,68.79"/>
  </g>
  <g id="_105553484827328">
   <path class="fil4 str7" d="M3120.66 3824.82c9.65,-38.54 23.11,-57.06 65.5,-42.34 30.96,-35.94 96.54,-11.23 97.43,32.98 1.45,71.65 -39.85,105.07 -88.84,99.4 -57.13,-6.61 -117.93,-30.46 -74.09,-90.04z"/>
   <path class="fil1 str8" d="M3168.72 3777.48c-1.21,-3.27 -3.03,-5.91 -5.13,-8.65 -1.32,0 9.55,11.18 5.79,3.85 -12.81,-24.91 -2.63,-3.29 9.79,4.34 2.84,1.75 -11.04,-18.82 -4.93,-22.79 1.92,-1.25 3.86,20.22 7.96,20.19 2.41,-0.01 7.46,-22.43 8.8,-21.31 2.9,2.45 -0.82,10.5 3.91,8.38 21.39,-9.59 -8.1,7.64 -8.69,8.86 2.63,0.97 13.53,-2.55 -4.07,6.09"/>
   <path class="fil1 str9" d="M3172.99 3801.4c-33.44,32.15 -20.08,78.14 1.32,68.79"/>
  </g>
  <g id="_105553484827424">
   <path class="fil4 str7" d="M2956.63 3842.11c9.65,-38.54 23.11,-57.06 65.5,-42.34 30.96,-35.94 96.54,-11.23 97.43,32.98 1.45,71.65 -39.85,105.07 -88.84,99.4 -57.13,-6.61 -117.93,-30.46 -74.09,-90.04z"/>
   <path class="fil1 str8" d="M3004.69 3794.77c-1.21,-3.27 -3.03,-5.91 -5.13,-8.65 -1.32,0 9.55,11.18 5.79,3.85 -12.81,-24.91 -2.63,-3.29 9.79,4.34 2.84,1.75 -11.04,-18.82 -4.93,-22.79 1.92,-1.25 3.86,20.22 7.96,20.19 2.41,-0.01 7.46,-22.43 8.8,-21.31 2.9,2.45 -0.82,10.5 3.91,8.38 21.39,-9.59 -8.1,7.64 -8.69,8.86 2.63,0.97 13.53,-2.55 -4.07,6.09"/>
   <path class="fil1 str9" d="M3008.96 3818.69c-33.44,32.15 -20.08,78.14 1.32,68.79"/>
  </g>
  <g id="_105553484831744">
   <path class="fil4 str7" d="M3298.61 3829.86c9.65,-38.54 23.11,-57.06 65.5,-42.34 30.96,-35.94 96.54,-11.23 97.43,32.98 1.45,71.65 -39.85,105.07 -88.84,99.4 -57.13,-6.61 -117.93,-30.46 -74.09,-90.04z"/>
   <path class="fil1 str8" d="M3346.67 3782.52c-1.21,-3.27 -3.03,-5.91 -5.13,-8.65 -1.32,0 9.55,11.18 5.79,3.85 -12.81,-24.91 -2.63,-3.29 9.79,4.34 2.84,1.75 -11.04,-18.82 -4.93,-22.79 1.92,-1.25 3.86,20.22 7.96,20.19 2.41,-0.01 7.46,-22.43 8.8,-21.31 2.9,2.45 -0.82,10.5 3.91,8.38 21.39,-9.59 -8.1,7.64 -8.69,8.86 2.63,0.97 13.53,-2.55 -4.07,6.09"/>
   <path class="fil1 str9" d="M3350.94 3806.44c-33.44,32.15 -20.08,78.14 1.32,68.79"/>
  </g>
  <g id="_105553484832064">
   <path class="fil4 str7" d="M2752.95 3627.09c9.65,-38.54 35.67,-50.44 78.06,-35.72 30.96,-35.94 81.49,-8.27 97.43,32.98 22.94,59.36 -33.82,99.1 -88.84,99.4 -46.74,0.26 -92.25,-27.91 -86.65,-96.66z"/>
   <path class="fil1 str8" d="M2813.57 3586.37c-1.21,-3.27 -3.03,-5.91 -5.13,-8.65 -1.32,0 9.55,11.18 5.79,3.85 -12.81,-24.91 -2.63,-3.29 9.79,4.34 2.84,1.75 -11.04,-18.82 -4.93,-22.79 1.92,-1.25 3.86,20.22 7.96,20.19 2.41,-0.01 7.46,-22.43 8.8,-21.31 2.9,2.45 -0.82,10.5 3.91,8.38 21.39,-9.59 -8.1,7.64 -8.69,8.86 2.63,0.97 13.53,-2.55 -4.07,6.09"/>
  </g>
  <g id="_105553484088064">
   <path class="fil4 str7" d="M2936.84 3615.18c9.65,-38.54 35.67,-50.44 78.06,-35.72 30.96,-35.94 81.49,-8.27 97.43,32.98 22.94,59.36 -33.82,99.1 -88.84,99.4 -46.74,0.26 -92.25,-27.91 -86.65,-96.66z"/>
   <path class="fil1 str8" d="M2997.46 3574.46c-1.21,-3.27 -3.03,-5.91 -5.13,-8.65 -1.32,0 9.55,11.18 5.79,3.85 -12.81,-24.91 -2.63,-3.29 9.79,4.34 2.84,1.75 -11.04,-18.82 -4.93,-22.79 1.92,-1.25 3.86,20.22 7.96,20.19 2.41,-0.01 7.46,-22.43 8.8,-21.31 2.9,2.45 -0.82,10.5 3.91,8.38 21.39,-9.59 -8.1,7.64 -8.69,8.86 2.63,0.97 13.53,-2.55 -4.07,6.09"/>
  </g>
  <g id="_105553484833920">
   <path class="fil4 str7" d="M3053.36 3598.65c9.65,-38.54 35.67,-50.44 78.06,-35.72 30.96,-35.94 81.49,-8.27 97.43,32.98 22.94,59.36 -33.82,99.1 -88.84,99.4 -46.74,0.26 -92.25,-27.91 -86.65,-96.66z"/>
   <path class="fil1 str8" d="M3113.98 3557.93c-1.21,-3.27 -3.03,-5.91 -5.13,-8.65 -1.32,0 9.55,11.18 5.79,3.85 -12.81,-24.91 -2.63,-3.29 9.79,4.34 2.84,1.75 -11.04,-18.82 -4.93,-22.79 1.92,-1.25 3.86,20.22 7.96,20.19 2.41,-0.01 7.46,-22.43 8.8,-21.31 2.9,2.45 -0.82,10.5 3.91,8.38 21.39,-9.59 -8.1,7.64 -8.69,8.86 2.63,0.97 13.53,-2.55 -4.07,6.09"/>
  </g>
  <g id="_105553484105504">
   <path class="fil4 str7" d="M3588.43 3609.27c9.65,-38.54 35.67,-50.44 78.06,-35.72 30.96,-35.94 81.49,-8.27 97.43,32.98 22.94,59.36 -33.82,99.1 -88.84,99.4 -46.74,0.26 -92.25,-27.91 -86.65,-96.66z"/>
   <path class="fil1 str8" d="M3649.05 3568.55c-1.21,-3.27 -3.03,-5.91 -5.13,-8.65 -1.32,0 9.55,11.18 5.79,3.85 -12.81,-24.91 -2.63,-3.29 9.79,4.34 2.84,1.75 -11.04,-18.82 -4.93,-22.79 1.92,-1.25 3.86,20.22 7.96,20.19 2.41,-0.01 7.46,-22.43 8.8,-21.31 2.9,2.45 -0.82,10.5 3.91,8.38 21.39,-9.59 -8.1,7.64 -8.69,8.86 2.63,0.97 13.53,-2.55 -4.07,6.09"/>
  </g>
  <g id="_105553484106816">
   <path class="fil4 str7" d="M3704.95 3592.74c9.65,-38.54 35.67,-50.44 78.06,-35.72 30.96,-35.94 81.49,-8.27 97.43,32.98 22.94,59.36 -33.82,99.1 -88.84,99.4 -46.74,0.26 -92.25,-27.91 -86.65,-96.66z"/>
   <path class="fil1 str8" d="M3765.57 3552.02c-1.21,-3.27 -3.03,-5.91 -5.13,-8.65 -1.32,0 9.55,11.18 5.79,3.85 -12.81,-24.91 -2.63,-3.29 9.79,4.34 2.84,1.75 -11.04,-18.82 -4.93,-22.79 1.92,-1.25 3.86,20.22 7.96,20.19 2.41,-0.01 7.46,-22.43 8.8,-21.31 2.9,2.45 -0.82,10.5 3.91,8.38 21.39,-9.59 -8.1,7.64 -8.69,8.86 2.63,0.97 13.53,-2.55 -4.07,6.09"/>
  </g>
  <g id="_105553484055744">
   <path class="fil4 str7" d="M3225.98 3574.16c9.65,-38.54 23.11,-57.06 65.5,-42.34 30.96,-35.94 96.54,-11.23 97.43,32.98 1.45,71.65 -39.85,105.07 -88.84,99.4 -57.13,-6.61 -117.93,-30.46 -74.09,-90.04z"/>
   <path class="fil1 str8" d="M3274.04 3526.82c-1.21,-3.27 -3.03,-5.91 -5.13,-8.65 -1.32,0 9.55,11.18 5.79,3.85 -12.81,-24.91 -2.63,-3.29 9.79,4.34 2.84,1.75 -11.04,-18.82 -4.93,-22.79 1.92,-1.25 3.86,20.22 7.96,20.19 2.41,-0.01 7.46,-22.43 8.8,-21.31 2.9,2.45 -0.82,10.5 3.91,8.38 21.39,-9.59 -8.1,7.64 -8.69,8.86 2.63,0.97 13.53,-2.55 -4.07,6.09"/>
   <path class="fil1 str9" d="M3278.31 3550.74c-33.44,32.15 -20.08,78.14 1.32,68.79"/>
  </g>
  <g id="_105553484834368">
   <path class="fil4 str7" d="M2807.3 3507.9c9.65,-38.54 23.11,-57.06 65.5,-42.34 30.96,-35.94 96.54,-11.23 97.43,32.98 1.45,71.65 -39.85,105.07 -88.84,99.4 -57.13,-6.61 -117.93,-30.46 -74.09,-90.04z"/>
   <path class="fil1 str8" d="M2855.36 3460.56c-1.21,-3.27 -3.03,-5.91 -5.13,-8.65 -1.32,0 9.55,11.18 5.79,3.85 -12.81,-24.91 -2.63,-3.29 9.79,4.34 2.84,1.75 -11.04,-18.82 -4.93,-22.79 1.92,-1.25 3.86,20.22 7.96,20.19 2.41,-0.01 7.46,-22.43 8.8,-21.31 2.9,2.45 -0.82,10.5 3.91,8.38 21.39,-9.59 -8.1,7.64 -8.69,8.86 2.63,0.97 13.53,-2.55 -4.07,6.09"/>
   <path class="fil1 str9" d="M2859.63 3484.48c-33.44,32.15 -20.08,78.14 1.32,68.79"/>
  </g>
  <g id="_105553484836704">
   <path class="fil4 str7" d="M3501.27 3496.52c9.65,-38.54 23.11,-57.06 65.5,-42.34 30.96,-35.94 96.54,-11.23 97.43,32.98 1.45,71.65 -39.85,105.07 -88.84,99.4 -57.13,-6.61 -117.93,-30.46 -74.09,-90.04z"/>
   <path class="fil1 str8" d="M3549.33 3449.18c-1.21,-3.27 -3.03,-5.91 -5.13,-8.65 -1.32,0 9.55,11.18 5.79,3.85 -12.81,-24.91 -2.63,-3.29 9.79,4.34 2.84,1.75 -11.04,-18.82 -4.93,-22.79 1.92,-1.25 3.86,20.22 7.96,20.19 2.41,-0.01 7.46,-22.43 8.8,-21.31 2.9,2.45 -0.82,10.5 3.91,8.38 21.39,-9.59 -8.1,7.64 -8.69,8.86 2.63,0.97 13.53,-2.55 -4.07,6.09"/>
   <path class="fil1 str9" d="M3553.6 3473.1c-33.44,32.15 -20.08,78.14 1.32,68.79"/>
  </g>
  <g id="_105553484830496">
   <path class="fil4 str7" d="M2949.62 3478.57c9.65,-38.54 23.11,-57.06 65.5,-42.34 30.96,-35.94 96.54,-11.23 97.43,32.98 1.45,71.65 -39.85,105.07 -88.84,99.4 -57.13,-6.61 -117.93,-30.46 -74.09,-90.04z"/>
   <path class="fil1 str8" d="M2997.68 3431.23c-1.21,-3.27 -3.03,-5.91 -5.13,-8.65 -1.32,0 9.55,11.18 5.79,3.85 -12.81,-24.91 -2.63,-3.29 9.79,4.34 2.84,1.75 -11.04,-18.82 -4.93,-22.79 1.92,-1.25 3.86,20.22 7.96,20.19 2.41,-0.01 7.46,-22.43 8.8,-21.31 2.9,2.45 -0.82,10.5 3.91,8.38 21.39,-9.59 -8.1,7.64 -8.69,8.86 2.63,0.97 13.53,-2.55 -4.07,6.09"/>
   <path class="fil1 str9" d="M3001.95 3455.15c-33.44,32.15 -20.08,78.14 1.32,68.79"/>
  </g>
  <g id="_105553484830240">
   <path class="fil4 str7" d="M3291.6 3466.32c9.65,-38.54 23.11,-57.06 65.5,-42.34 30.96,-35.94 96.54,-11.23 97.43,32.98 1.45,71.65 -39.85,105.07 -88.84,99.4 -57.13,-6.61 -117.93,-30.46 -74.09,-90.04z"/>
   <path class="fil1 str8" d="M3339.66 3418.98c-1.21,-3.27 -3.03,-5.91 -5.13,-8.65 -1.32,0 9.55,11.18 5.79,3.85 -12.81,-24.91 -2.63,-3.29 9.79,4.34 2.84,1.75 -11.04,-18.82 -4.93,-22.79 1.92,-1.25 3.86,20.22 7.96,20.19 2.41,-0.01 7.46,-22.43 8.8,-21.31 2.9,2.45 -0.82,10.5 3.91,8.38 21.39,-9.59 -8.1,7.64 -8.69,8.86 2.63,0.97 13.53,-2.55 -4.07,6.09"/>
   <path class="fil1 str9" d="M3343.93 3442.9c-33.44,32.15 -20.08,78.14 1.32,68.79"/>
  </g>
  <g id="_105553484291264">
   <path class="fil4 str7" d="M3403.34 3556.31c9.65,-38.54 23.11,-57.06 65.5,-42.34 30.96,-35.94 96.54,-11.23 97.43,32.98 1.45,71.65 -39.85,105.07 -88.84,99.4 -57.13,-6.61 -117.93,-30.46 -74.09,-90.04z"/>
   <path class="fil1 str8" d="M3451.4 3508.97c-1.21,-3.27 -3.03,-5.91 -5.13,-8.65 -1.32,0 9.55,11.18 5.79,3.85 -12.81,-24.91 -2.63,-3.29 9.79,4.34 2.84,1.75 -11.04,-18.82 -4.93,-22.79 1.92,-1.25 3.86,20.22 7.96,20.19 2.41,-0.01 7.46,-22.43 8.8,-21.31 2.9,2.45 -0.82,10.5 3.91,8.38 21.39,-9.59 -8.1,7.64 -8.69,8.86 2.63,0.97 13.53,-2.55 -4.07,6.09"/>
   <path class="fil1 str9" d="M3455.67 3532.89c-33.44,32.15 -20.08,78.14 1.32,68.79"/>
  </g>
  <line class="fil1 str10" x1="752.37" y1="3643.56" x2="4087.41" y2= "3643.56" />
  <rect class="fil0 str3" x="2589.76" y="3581.26" width="1381.13" height="259.29"/>
  <rect class="fil0 str3" x="2653.89" y="3840.56" width="134.94" height="169.33"/>
  <rect class="fil0 str3" x="3795.58" y="3840.56" width="123.03" height="169.33"/>
  <g id="_105553484808160">
   <path class="fil1 str7" d="M1448.76 3757.76c-63.58,0.64 -125.9,-16.94 -189.29,-6.58 -24.71,4.05 -41.63,-2.68 -78.98,2.34 -41.08,5.53 -80.74,-8.37 -19.66,-20.03 25.52,-4.86 15.97,-62.96 50.51,-25.19"/>
   <path class="fil1 str11" d="M1559.1 3735.21c3.47,8.57 0.17,31.41 -12.72,38.86"/>
   <path class="fil1 str11" d="M1638.05 3742.1c4.14,14.54 0.85,27.73 -9.89,39.57"/>
   <path class="fil6 str11" d="M1819 3749.29c138.12,16.12 92.08,52.58 -15.1,52.28 -39.22,-0.11 -314.63,-6.57 -337.71,-29.79 -28.26,-28.43 12.2,-59.9 59.68,-57.46 98.23,5.04 196.45,16.61 293.13,34.97z"/>
   <path class="fil1 str3" d="M1263.62 3745.05c-33.55,-55.82 -151.88,-122.71 -40.52,-63.84 8.34,4.42 162.46,74.37 79.85,28.26 -35.61,-19.88 -34.4,0.04 -79.82,-21.07 -21.09,-9.8 -167.68,-40.41 -37.3,-5.17 43.7,11.82 91.05,25.08 126.78,53.05 45.64,35.73 97.87,13.48 141.8,11.59"/>
   <path class="fil1 str3" d="M1450.17 3739.4c-35.31,-18.91 -81.19,-7.77 -137.44,-21.2 -40.34,-9.64 -108.18,-13.35 -126.83,-55.11 44.89,-15.24 31.58,18.67 88.11,7.3 18.15,-3.65 100.01,9.66 108.28,21.69l4.28 13.4 63.6 33.92z"/>
   <path class="fil1 str11" d="M1559.1 3735.21c-3.42,13.09 -7.66,26.03 -12.72,38.86"/>
   <line class="fil1 str11" x1="1638.05" y1="3742.1" x2="1628.16" y2= "3781.67" />
  </g>
  <g id="_105553484807712">
   <path class="fil1 str12" d="M1643.33 3904.67c-63.58,0.64 -125.9,-16.94 -189.29,-6.58 -24.71,4.05 -41.63,-2.68 -78.98,2.34 -41.08,5.53 -80.74,-8.37 -19.66,-20.03 25.52,-4.86 15.97,-62.96 50.51,-25.19"/>
   <path class="fil1 str13" d="M1753.67 3882.12c3.47,8.57 0.17,31.41 -12.72,38.86"/>
   <path class="fil1 str13" d="M1832.62 3889.01c4.14,14.54 0.85,27.73 -9.89,39.57"/>
   <path class="fil6 str13" d="M2013.57 3896.2c138.12,16.12 92.08,52.58 -15.1,52.28 -39.22,-0.11 -314.63,-6.57 -337.71,-29.79 -28.26,-28.43 12.2,-59.9 59.68,-57.46 98.23,5.04 196.45,16.61 293.13,34.97z"/>
   <path class="fil1 str14" d="M1458.19 3891.96c-33.55,-55.82 -151.88,-122.71 -40.52,-63.84 8.34,4.42 162.46,74.37 79.85,28.26 -35.61,-19.88 -34.4,0.04 -79.82,-21.07 -21.09,-9.8 -167.68,-40.41 -37.3,-5.17 43.7,11.82 91.05,25.08 126.78,53.05 45.64,35.73 97.87,13.48 141.8,11.59"/>
   <path class="fil1 str14" d="M1644.74 3886.31c-35.31,-18.91 -81.19,-7.77 -137.44,-21.2 -40.34,-9.64 -108.18,-13.35 -126.83,-55.11 44.89,-15.24 31.58,18.67 88.11,7.3 18.15,-3.65 100.01,9.66 108.28,21.69l4.28 13.4 63.6 33.92z"/>
   <path class="fil1 str13" d="M1753.67 3882.12c-3.42,13.09 -7.66,26.03 -12.72,38.86"/>
   <line class="fil1 str13" x1="1832.62" y1="3889.01" x2="1822.73" y2= "3928.58" />
  </g>
  <g id="_105553484838080">
   <path class="fil1 str7" d="M1683.09 3820.05c-63.58,0.64 -125.9,-16.94 -189.29,-6.58 -24.71,4.05 -41.63,-2.68 -78.98,2.34 -41.08,5.53 -80.74,-8.37 -19.66,-20.03 25.52,-4.86 15.97,-62.96 50.51,-25.19"/>
   <path class="fil1 str11" d="M1793.43 3797.5c3.47,8.57 0.17,31.41 -12.72,38.86"/>
   <path class="fil1 str11" d="M1872.38 3804.39c4.14,14.54 0.85,27.73 -9.89,39.57"/>
   <path class="fil6 str11" d="M2053.33 3811.58c138.12,16.12 92.08,52.58 -15.1,52.28 -39.22,-0.11 -314.63,-6.57 -337.71,-29.79 -28.26,-28.43 12.2,-59.9 59.68,-57.46 98.23,5.04 196.45,16.61 293.13,34.97z"/>
   <path class="fil1 str3" d="M1497.95 3807.34c-33.55,-55.82 -151.88,-122.71 -40.52,-63.84 8.34,4.42 162.46,74.37 79.85,28.26 -35.61,-19.88 -34.4,0.04 -79.82,-21.07 -21.09,-9.8 -167.68,-40.41 -37.3,-5.17 43.7,11.82 91.05,25.08 126.78,53.05 45.64,35.73 97.87,13.48 141.8,11.59"/>
   <path class="fil1 str3" d="M1684.5 3801.69c-35.31,-18.91 -81.19,-7.77 -137.44,-21.2 -40.34,-9.64 -108.18,-13.35 -126.83,-55.11 44.89,-15.24 31.58,18.67 88.11,7.3 18.15,-3.65 100.01,9.66 108.28,21.69l4.28 13.4 63.6 33.92z"/>
   <path class="fil1 str11" d="M1793.43 3797.5c-3.42,13.09 -7.66,26.03 -12.72,38.86"/>
   <line class="fil1 str11" x1="1872.38" y1="3804.39" x2="1862.49" y2= "3843.96" />
  </g>
  <g id="_105553484776384">
   <path class="fil1 str12" d="M1015.23 3738.23c-63.58,0.64 -125.9,-16.94 -189.29,-6.58 -24.71,4.05 -41.63,-2.68 -78.98,2.34 -41.08,5.53 -80.74,-8.37 -19.66,-20.03 25.52,-4.86 15.97,-62.96 50.51,-25.19"/>
   <path class="fil1 str13" d="M1125.57 3715.68c3.47,8.57 0.17,31.41 -12.72,38.86"/>
   <path class="fil1 str13" d="M1204.52 3722.57c4.14,14.54 0.85,27.73 -9.89,39.57"/>
   <path class="fil6 str13" d="M1385.47 3729.76c138.12,16.12 92.08,52.58 -15.1,52.28 -39.22,-0.11 -314.63,-6.57 -337.71,-29.79 -28.26,-28.43 12.2,-59.9 59.68,-57.46 98.23,5.04 196.45,16.61 293.13,34.97z"/>
   <path class="fil1 str14" d="M830.09 3725.52c-33.55,-55.82 -151.88,-122.71 -40.52,-63.84 8.34,4.42 162.46,74.37 79.85,28.26 -35.61,-19.88 -34.4,0.04 -79.82,-21.07 -21.09,-9.8 -167.68,-40.41 -37.3,-5.17 43.7,11.82 91.05,25.08 126.78,53.05 45.64,35.73 97.87,13.48 141.8,11.59"/>
   <path class="fil1 str14" d="M1016.64 3719.87c-35.31,-18.91 -81.19,-7.77 -137.44,-21.2 -40.34,-9.64 -108.18,-13.35 -126.83,-55.11 44.89,-15.24 31.58,18.67 88.11,7.3 18.15,-3.65 100.01,9.66 108.28,21.69l4.28 13.4 63.6 33.92z"/>
   <path class="fil1 str13" d="M1125.57 3715.68c-3.42,13.09 -7.66,26.03 -12.72,38.86"/>
   <line class="fil1 str13" x1="1204.52" y1="3722.57" x2="1194.63" y2= "3762.14" />
  </g>
  <g id="_105553484798208">
   <path class="fil1 str12" d="M1209.8 3885.14c-63.58,0.64 -125.9,-16.94 -189.29,-6.58 -24.71,4.05 -41.63,-2.68 -78.98,2.34 -41.08,5.53 -80.74,-8.37 -19.66,-20.03 25.52,-4.86 15.97,-62.96 50.51,-25.19"/>
   <path class="fil1 str13" d="M1320.14 3862.59c3.47,8.57 0.17,31.41 -12.72,38.86"/>
   <path class="fil1 str13" d="M1399.09 3869.48c4.14,14.54 0.85,27.73 -9.89,39.57"/>
   <path class="fil6 str13" d="M1580.04 3876.67c138.12,16.12 92.08,52.58 -15.1,52.28 -39.22,-0.11 -314.63,-6.57 -337.71,-29.79 -28.26,-28.43 12.2,-59.9 59.68,-57.46 98.23,5.04 196.45,16.61 293.13,34.97z"/>
   <path class="fil1 str14" d="M1024.66 3872.43c-33.55,-55.82 -151.88,-122.71 -40.52,-63.84 8.34,4.42 162.46,74.37 79.85,28.26 -35.61,-19.88 -34.4,0.04 -79.82,-21.07 -21.09,-9.8 -167.68,-40.41 -37.3,-5.17 43.7,11.82 91.05,25.08 126.78,53.05 45.64,35.73 97.87,13.48 141.8,11.59"/>
   <path class="fil1 str14" d="M1211.21 3866.78c-35.31,-18.91 -81.19,-7.77 -137.44,-21.2 -40.34,-9.64 -108.18,-13.35 -126.83,-55.11 44.89,-15.24 31.58,18.67 88.11,7.3 18.15,-3.65 100.01,9.66 108.28,21.69l4.28 13.4 63.6 33.92z"/>
   <path class="fil1 str13" d="M1320.14 3862.59c-3.42,13.09 -7.66,26.03 -12.72,38.86"/>
   <line class="fil1 str13" x1="1399.09" y1="3869.48" x2="1389.2" y2= "3909.05" />
  </g>
  <g id="_105553484797632">
   <path class="fil1 str12" d="M1249.56 3800.52c-63.58,0.64 -125.9,-16.94 -189.29,-6.58 -24.71,4.05 -41.63,-2.68 -78.98,2.34 -41.08,5.53 -80.74,-8.37 -19.66,-20.03 25.52,-4.86 15.97,-62.96 50.51,-25.19"/>
   <path class="fil1 str13" d="M1359.9 3777.97c3.47,8.57 0.17,31.41 -12.72,38.86"/>
   <path class="fil1 str13" d="M1438.85 3784.86c4.14,14.54 0.85,27.73 -9.89,39.57"/>
   <path class="fil6 str13" d="M1619.8 3792.05c138.12,16.12 92.08,52.58 -15.1,52.28 -39.22,-0.11 -314.63,-6.57 -337.71,-29.79 -28.26,-28.43 12.2,-59.9 59.68,-57.46 98.23,5.04 196.45,16.61 293.13,34.97z"/>
   <path class="fil1 str14" d="M1064.42 3787.81c-33.55,-55.82 -151.88,-122.71 -40.52,-63.84 8.34,4.42 162.46,74.37 79.85,28.26 -35.61,-19.88 -34.4,0.04 -79.82,-21.07 -21.09,-9.8 -167.68,-40.41 -37.3,-5.17 43.7,11.82 91.05,25.08 126.78,53.05 45.64,35.73 97.87,13.48 141.8,11.59"/>
   <path class="fil1 str14" d="M1250.97 3782.16c-35.31,-18.91 -81.19,-7.77 -137.44,-21.2 -40.34,-9.64 -108.18,-13.35 -126.83,-55.11 44.89,-15.24 31.58,18.67 88.11,7.3 18.15,-3.65 100.01,9.66 108.28,21.69l4.28 13.4 63.6 33.92z"/>
   <path class="fil1 str13" d="M1359.9 3777.97c-3.42,13.09 -7.66,26.03 -12.72,38.86"/>
   <line class="fil1 str13" x1="1438.85" y1="3784.86" x2="1428.96" y2= "3824.43" />
  </g>
  <rect class="fil0 str14" x="862.51" y="3647.74" width="134.94" height="169.33"/>
  <rect class="fil0 str3" x="2004.2" y="3647.74" width="123.03" height="169.33"/>
  <ellipse class="fil0 str14" cx="930.33" cy="3523.28" rx="19.85" ry="20.4"/>
  <ellipse class="fil7 str14" cx="930.33" cy="3523.28" rx="19.85" ry="20.4"/>
  <g id="_105553484781920">
   <path class="fil1 str12" d="M1556.16 3562.34c-63.58,0.64 -125.9,-16.94 -189.29,-6.58 -24.71,4.05 -41.63,-2.68 -78.98,2.34 -41.08,5.53 -80.74,-8.37 -19.66,-20.03 25.52,-4.86 15.97,-62.96 50.51,-25.19"/>
   <path class="fil1 str13" d="M1666.5 3539.79c3.47,8.57 0.17,31.41 -12.72,38.86"/>
   <path class="fil1 str13" d="M1745.45 3546.68c4.14,14.54 0.85,27.73 -9.89,39.57"/>
   <path class="fil6 str13" d="M1926.4 3553.87c138.12,16.12 92.08,52.58 -15.1,52.28 -39.22,-0.11 -314.63,-6.57 -337.71,-29.79 -28.26,-28.43 12.2,-59.9 59.68,-57.46 98.23,5.04 196.45,16.61 293.13,34.97z"/>
   <path class="fil1 str14" d="M1371.02 3549.63c-33.55,-55.82 -151.88,-122.71 -40.52,-63.84 8.34,4.42 162.46,74.37 79.85,28.26 -35.61,-19.88 -34.4,0.04 -79.82,-21.07 -21.09,-9.8 -167.68,-40.41 -37.3,-5.17 43.7,11.82 91.05,25.08 126.78,53.05 45.64,35.73 97.87,13.48 141.8,11.59"/>
   <path class="fil1 str14" d="M1557.57 3543.98c-35.31,-18.91 -81.19,-7.77 -137.44,-21.2 -40.34,-9.64 -108.18,-13.35 -126.83,-55.11 44.89,-15.24 31.58,18.67 88.11,7.3 18.15,-3.65 100.01,9.66 108.28,21.69l4.28 13.4 63.6 33.92z"/>
   <path class="fil1 str13" d="M1666.5 3539.79c-3.42,13.09 -7.66,26.03 -12.72,38.86"/>
   <line class="fil1 str13" x1="1745.45" y1="3546.68" x2="1735.56" y2= "3586.25" />
  </g>
  <g id="_105553484782592">
   <path class="fil1 str12" d="M1122.63 3542.81c-63.58,0.64 -125.9,-16.94 -189.29,-6.58 -24.71,4.05 -41.63,-2.68 -78.98,2.34 -41.08,5.53 -80.74,-8.37 -19.66,-20.03 25.52,-4.86 15.97,-62.96 50.51,-25.19"/>
   <path class="fil1 str13" d="M1232.97 3520.26c3.47,8.57 0.17,31.41 -12.72,38.86"/>
   <path class="fil1 str13" d="M1311.92 3527.15c4.14,14.54 0.85,27.73 -9.89,39.57"/>
   <path class="fil6 str13" d="M1492.87 3534.34c138.12,16.12 92.08,52.58 -15.1,52.28 -39.22,-0.11 -314.63,-6.57 -337.71,-29.79 -28.26,-28.43 12.2,-59.9 59.68,-57.46 98.23,5.04 196.45,16.61 293.13,34.97z"/>
   <path class="fil1 str14" d="M937.49 3530.1c-33.55,-55.82 -151.88,-122.71 -40.52,-63.84 8.34,4.42 162.46,74.37 79.85,28.26 -35.61,-19.88 -34.4,0.04 -79.82,-21.07 -21.09,-9.8 -167.68,-40.41 -37.3,-5.17 43.7,11.82 91.05,25.08 126.78,53.05 45.64,35.73 97.87,13.48 141.8,11.59"/>
   <path class="fil1 str14" d="M1124.04 3524.45c-35.31,-18.91 -81.19,-7.77 -137.44,-21.2 -40.34,-9.64 -108.18,-13.35 -126.83,-55.11 44.89,-15.24 31.58,18.67 88.11,7.3 18.15,-3.65 100.01,9.66 108.28,21.69l4.28 13.4 63.6 33.92z"/>
   <path class="fil1 str13" d="M1232.97 3520.26c-3.42,13.09 -7.66,26.03 -12.72,38.86"/>
   <line class="fil1 str13" x1="1311.92" y1="3527.15" x2="1302.03" y2= "3566.72" />
  </g>
  <g id="_105553484744960">
   <path class="fil1 str12" d="M1356.96 3605.1c-63.58,0.64 -125.9,-16.94 -189.29,-6.58 -24.71,4.05 -41.63,-2.68 -78.98,2.34 -41.08,5.53 -80.74,-8.37 -19.66,-20.03 25.52,-4.86 15.97,-62.96 50.51,-25.19"/>
   <path class="fil1 str13" d="M1467.3 3582.55c3.47,8.57 0.17,31.41 -12.72,38.86"/>
   <path class="fil1 str13" d="M1546.25 3589.44c4.14,14.54 0.85,27.73 -9.89,39.57"/>
   <path class="fil6 str13" d="M1727.2 3596.63c138.12,16.12 92.08,52.58 -15.1,52.28 -39.22,-0.11 -314.63,-6.57 -337.71,-29.79 -28.26,-28.43 12.2,-59.9 59.68,-57.46 98.23,5.04 196.45,16.61 293.13,34.97z"/>
   <path class="fil1 str14" d="M1171.82 3592.39c-33.55,-55.82 -151.88,-122.71 -40.52,-63.84 8.34,4.42 162.46,74.37 79.85,28.26 -35.61,-19.88 -34.4,0.04 -79.82,-21.07 -21.09,-9.8 -167.68,-40.41 -37.3,-5.17 43.7,11.82 91.05,25.08 126.78,53.05 45.64,35.73 97.87,13.48 141.8,11.59"/>
   <path class="fil1 str14" d="M1358.37 3586.74c-35.31,-18.91 -81.19,-7.77 -137.44,-21.2 -40.34,-9.64 -108.18,-13.35 -126.83,-55.11 44.89,-15.24 31.58,18.67 88.11,7.3 18.15,-3.65 100.01,9.66 108.28,21.69l4.28 13.4 63.6 33.92z"/>
   <path class="fil1 str13" d="M1467.3 3582.55c-3.42,13.09 -7.66,26.03 -12.72,38.86"/>
   <line class="fil1 str13" x1="1546.25" y1="3589.44" x2="1536.36" y2= "3629.01" />
  </g>
  <rect class="fil0 str3" x="776.72" y="3582.54" width="1381.13" height="259.29"/>
  <g id="_105553484755424">
   <path class="fil1 str12" d="M1427.11 3951.86c-63.58,0.64 -125.9,-16.94 -189.29,-6.58 -24.71,4.05 -41.63,-2.68 -78.98,2.34 -41.08,5.53 -80.74,-8.37 -19.66,-20.03 25.52,-4.86 15.97,-62.96 50.51,-25.19"/>
   <path class="fil1 str13" d="M1537.45 3929.31c3.47,8.57 0.17,31.41 -12.72,38.86"/>
   <path class="fil1 str13" d="M1616.4 3936.2c4.14,14.54 0.85,27.73 -9.89,39.57"/>
   <path class="fil6 str13" d="M1797.35 3943.39c138.12,16.12 92.08,52.58 -15.1,52.28 -39.22,-0.11 -314.63,-6.57 -337.71,-29.79 -28.26,-28.43 12.2,-59.9 59.68,-57.46 98.23,5.04 196.45,16.61 293.13,34.97z"/>
   <path class="fil1 str14" d="M1241.97 3939.15c-33.55,-55.82 -151.88,-122.71 -40.52,-63.84 8.34,4.42 162.46,74.37 79.85,28.26 -35.61,-19.88 -34.4,0.04 -79.82,-21.07 -21.09,-9.8 -167.68,-40.41 -37.3,-5.17 43.7,11.82 91.05,25.08 126.78,53.05 45.64,35.73 97.87,13.48 141.8,11.59"/>
   <path class="fil1 str14" d="M1428.52 3933.5c-35.31,-18.91 -81.19,-7.77 -137.44,-21.2 -40.34,-9.64 -108.18,-13.35 -126.83,-55.11 44.89,-15.24 31.58,18.67 88.11,7.3 18.15,-3.65 100.01,9.66 108.28,21.69l4.28 13.4 63.6 33.92z"/>
   <path class="fil1 str13" d="M1537.45 3929.31c-3.42,13.09 -7.66,26.03 -12.72,38.86"/>
   <line class="fil1 str13" x1="1616.4" y1="3936.2" x2="1606.51" y2= "3975.77" />
  </g>
  <g id="_105553484754080">
   <path class="fil1 str7" d="M1621.68 4098.77c-63.58,0.64 -125.9,-16.94 -189.29,-6.58 -24.71,4.05 -41.63,-2.68 -78.98,2.34 -41.08,5.53 -80.74,-8.37 -19.66,-20.03 25.52,-4.86 15.97,-62.96 50.51,-25.19"/>
   <path class="fil1 str11" d="M1732.02 4076.22c3.47,8.57 0.17,31.41 -12.72,38.86"/>
   <path class="fil1 str11" d="M1810.97 4083.11c4.14,14.54 0.85,27.73 -9.89,39.57"/>
   <path class="fil6 str11" d="M1991.92 4090.3c138.12,16.12 92.08,52.58 -15.1,52.28 -39.22,-0.11 -314.63,-6.57 -337.71,-29.79 -28.26,-28.43 12.2,-59.9 59.68,-57.46 98.23,5.04 196.45,16.61 293.13,34.97z"/>
   <path class="fil1 str3" d="M1436.54 4086.06c-33.55,-55.82 -151.88,-122.71 -40.52,-63.84 8.34,4.42 162.46,74.37 79.85,28.26 -35.61,-19.88 -34.4,0.04 -79.82,-21.07 -21.09,-9.8 -167.68,-40.41 -37.3,-5.17 43.7,11.82 91.05,25.08 126.78,53.05 45.64,35.73 97.87,13.48 141.8,11.59"/>
   <path class="fil1 str3" d="M1623.09 4080.41c-35.31,-18.91 -81.19,-7.77 -137.44,-21.2 -40.34,-9.64 -108.18,-13.35 -126.83,-55.11 44.89,-15.24 31.58,18.67 88.11,7.3 18.15,-3.65 100.01,9.66 108.28,21.69l4.28 13.4 63.6 33.92z"/>
   <path class="fil1 str11" d="M1732.02 4076.22c-3.42,13.09 -7.66,26.03 -12.72,38.86"/>
   <line class="fil1 str11" x1="1810.97" y1="4083.11" x2="1801.08" y2= "4122.68" />
  </g>
  <g id="_105553484772928">
   <path class="fil1 str12" d="M1661.44 4014.15c-63.58,0.64 -125.9,-16.94 -189.29,-6.58 -24.71,4.05 -41.63,-2.68 -78.98,2.34 -41.08,5.53 -80.74,-8.37 -19.66,-20.03 25.52,-4.86 15.97,-62.96 50.51,-25.19"/>
   <path class="fil1 str13" d="M1771.78 3991.6c3.47,8.57 0.17,31.41 -12.72,38.86"/>
   <path class="fil1 str13" d="M1850.73 3998.49c4.14,14.54 0.85,27.73 -9.89,39.57"/>
   <path class="fil6 str13" d="M2031.68 4005.68c138.12,16.12 92.08,52.58 -15.1,52.28 -39.22,-0.11 -314.63,-6.57 -337.71,-29.79 -28.26,-28.43 12.2,-59.9 59.68,-57.46 98.23,5.04 196.45,16.61 293.13,34.97z"/>
   <path class="fil1 str14" d="M1476.3 4001.44c-33.55,-55.82 -151.88,-122.71 -40.52,-63.84 8.34,4.42 162.46,74.37 79.85,28.26 -35.61,-19.88 -34.4,0.04 -79.82,-21.07 -21.09,-9.8 -167.68,-40.41 -37.3,-5.17 43.7,11.82 91.05,25.08 126.78,53.05 45.64,35.73 97.87,13.48 141.8,11.59"/>
   <path class="fil1 str14" d="M1662.85 3995.79c-35.31,-18.91 -81.19,-7.77 -137.44,-21.2 -40.34,-9.64 -108.18,-13.35 -126.83,-55.11 44.89,-15.24 31.58,18.67 88.11,7.3 18.15,-3.65 100.01,9.66 108.28,21.69l4.28 13.4 63.6 33.92z"/>
   <path class="fil1 str13" d="M1771.78 3991.6c-3.42,13.09 -7.66,26.03 -12.72,38.86"/>
   <line class="fil1 str13" x1="1850.73" y1="3998.49" x2="1840.84" y2= "4038.06" />
  </g>
  <g id="_105553484774944">
   <path class="fil1 str12" d="M993.58 3932.33c-63.58,0.64 -125.9,-16.94 -189.29,-6.58 -24.71,4.05 -41.63,-2.68 -78.98,2.34 -41.08,5.53 -80.74,-8.37 -19.66,-20.03 25.52,-4.86 15.97,-62.96 50.51,-25.19"/>
   <path class="fil1 str13" d="M1103.92 3909.78c3.47,8.57 0.17,31.41 -12.72,38.86"/>
   <path class="fil1 str13" d="M1182.87 3916.67c4.14,14.54 0.85,27.73 -9.89,39.57"/>
   <path class="fil6 str13" d="M1363.82 3923.86c138.12,16.12 92.08,52.58 -15.1,52.28 -39.22,-0.11 -314.63,-6.57 -337.71,-29.79 -28.26,-28.43 12.2,-59.9 59.68,-57.46 98.23,5.04 196.45,16.61 293.13,34.97z"/>
   <path class="fil1 str14" d="M808.44 3919.62c-33.55,-55.82 -151.88,-122.71 -40.52,-63.84 8.34,4.42 162.46,74.37 79.85,28.26 -35.61,-19.88 -34.4,0.04 -79.82,-21.07 -21.09,-9.8 -167.68,-40.41 -37.3,-5.17 43.7,11.82 91.05,25.08 126.78,53.05 45.64,35.73 97.87,13.48 141.8,11.59"/>
   <path class="fil1 str14" d="M994.99 3913.97c-35.31,-18.91 -81.19,-7.77 -137.44,-21.2 -40.34,-9.64 -108.18,-13.35 -126.83,-55.11 44.89,-15.24 31.58,18.67 88.11,7.3 18.15,-3.65 100.01,9.66 108.28,21.69l4.28 13.4 63.6 33.92z"/>
   <path class="fil1 str13" d="M1103.92 3909.78c-3.42,13.09 -7.66,26.03 -12.72,38.86"/>
   <line class="fil1 str13" x1="1182.87" y1="3916.67" x2="1172.98" y2= "3956.24" />
  </g>
  <g id="_105553484789376">
   <path class="fil1 str12" d="M1188.15 4079.24c-63.58,0.64 -125.9,-16.94 -189.29,-6.58 -24.71,4.05 -41.63,-2.68 -78.98,2.34 -41.08,5.53 -80.74,-8.37 -19.66,-20.03 25.52,-4.86 15.97,-62.96 50.51,-25.19"/>
   <path class="fil1 str13" d="M1298.49 4056.69c3.47,8.57 0.17,31.41 -12.72,38.86"/>
   <path class="fil1 str13" d="M1377.44 4063.58c4.14,14.54 0.85,27.73 -9.89,39.57"/>
   <path class="fil6 str13" d="M1558.39 4070.77c138.12,16.12 92.08,52.58 -15.1,52.28 -39.22,-0.11 -314.63,-6.57 -337.71,-29.79 -28.26,-28.43 12.2,-59.9 59.68,-57.46 98.23,5.04 196.45,16.61 293.13,34.97z"/>
   <path class="fil1 str14" d="M1003.01 4066.53c-33.55,-55.82 -151.88,-122.71 -40.52,-63.84 8.34,4.42 162.46,74.37 79.85,28.26 -35.61,-19.88 -34.4,0.04 -79.82,-21.07 -21.09,-9.8 -167.68,-40.41 -37.3,-5.17 43.7,11.82 91.05,25.08 126.78,53.05 45.64,35.73 97.87,13.48 141.8,11.59"/>
   <path class="fil1 str14" d="M1189.56 4060.88c-35.31,-18.91 -81.19,-7.77 -137.44,-21.2 -40.34,-9.64 -108.18,-13.35 -126.83,-55.11 44.89,-15.24 31.58,18.67 88.11,7.3 18.15,-3.65 100.01,9.66 108.28,21.69l4.28 13.4 63.6 33.92z"/>
   <path class="fil1 str13" d="M1298.49 4056.69c-3.42,13.09 -7.66,26.03 -12.72,38.86"/>
   <line class="fil1 str13" x1="1377.44" y1="4063.58" x2="1367.55" y2= "4103.15" />
  </g>
  <g id="_105553484772640">
   <path class="fil1 str12" d="M1227.91 3994.62c-63.58,0.64 -125.9,-16.94 -189.29,-6.58 -24.71,4.05 -41.63,-2.68 -78.98,2.34 -41.08,5.53 -80.74,-8.37 -19.66,-20.03 25.52,-4.86 15.97,-62.96 50.51,-25.19"/>
   <path class="fil1 str13" d="M1338.25 3972.07c3.47,8.57 0.17,31.41 -12.72,38.86"/>
   <path class="fil1 str13" d="M1417.2 3978.96c4.14,14.54 0.85,27.73 -9.89,39.57"/>
   <path class="fil6 str13" d="M1598.15 3986.15c138.12,16.12 92.08,52.58 -15.1,52.28 -39.22,-0.11 -314.63,-6.57 -337.71,-29.79 -28.26,-28.43 12.2,-59.9 59.68,-57.46 98.23,5.04 196.45,16.61 293.13,34.97z"/>
   <path class="fil1 str14" d="M1042.77 3981.91c-33.55,-55.82 -151.88,-122.71 -40.52,-63.84 8.34,4.42 162.46,74.37 79.85,28.26 -35.61,-19.88 -34.4,0.04 -79.82,-21.07 -21.09,-9.8 -167.68,-40.41 -37.3,-5.17 43.7,11.82 91.05,25.08 126.78,53.05 45.64,35.73 97.87,13.48 141.8,11.59"/>
   <path class="fil1 str14" d="M1229.32 3976.26c-35.31,-18.91 -81.19,-7.77 -137.44,-21.2 -40.34,-9.64 -108.18,-13.35 -126.83,-55.11 44.89,-15.24 31.58,18.67 88.11,7.3 18.15,-3.65 100.01,9.66 108.28,21.69l4.28 13.4 63.6 33.92z"/>
   <path class="fil1 str13" d="M1338.25 3972.07c-3.42,13.09 -7.66,26.03 -12.72,38.86"/>
   <line class="fil1 str13" x1="1417.2" y1="3978.96" x2="1407.31" y2= "4018.53" />
  </g>
  <rect class="fil0 str3" x="762.02" y="4011.16" width="1401.77" height="250.85"/>
  <rect class="fil0 str3" x="840.86" y="3841.84" width="134.94" height="169.33"/>
  <rect class="fil0 str3" x="1982.54" y="3841.84" width="123.03" height="169.33"/>
  <ellipse class="fil0 str14" cx="908.68" cy="3717.38" rx="19.85" ry="20.4"/>
  <ellipse class="fil8 str15" cx="2044.07" cy="3710.9" rx="19.85" ry="20.4"/>
  <ellipse class="fil9 str16" cx="908.68" cy="3717.38" rx="19.85" ry="20.4"/>
  <g id="_105553484783296">
   <path class="fil4 str7" d="M3410.35 3919.85c9.65,-38.54 23.11,-57.06 65.5,-42.34 30.96,-35.94 96.54,-11.23 97.43,32.98 1.45,71.65 -39.85,105.07 -88.84,99.4 -57.13,-6.61 -117.93,-30.46 -74.09,-90.04z"/>
   <path class="fil1 str8" d="M3458.41 3872.51c-1.21,-3.27 -3.03,-5.91 -5.13,-8.65 -1.32,0 9.55,11.18 5.79,3.85 -12.81,-24.91 -2.63,-3.29 9.79,4.34 2.84,1.75 -11.04,-18.82 -4.93,-22.79 1.92,-1.25 3.86,20.22 7.96,20.19 2.41,-0.01 7.46,-22.43 8.8,-21.31 2.9,2.45 -0.82,10.5 3.91,8.38 21.39,-9.59 -8.1,7.64 -8.69,8.86 2.63,0.97 13.53,-2.55 -4.07,6.09"/>
   <path class="fil1 str9" d="M3462.68 3896.43c-33.44,32.15 -20.08,78.14 1.32,68.79"/>
  </g>
  <g id="_105553484782176">
   <path class="fil4 str7" d="M3119.29 3450.93c9.65,-38.54 35.67,-50.44 78.06,-35.72 30.96,-35.94 81.49,-8.27 97.43,32.98 22.94,59.36 -33.82,99.1 -88.84,99.4 -46.74,0.26 -92.25,-27.91 -86.65,-96.66z"/>
   <path class="fil1 str8" d="M3179.91 3410.21c-1.21,-3.27 -3.03,-5.91 -5.13,-8.65 -1.32,0 9.55,11.18 5.79,3.85 -12.81,-24.91 -2.63,-3.29 9.79,4.34 2.84,1.75 -11.04,-18.82 -4.93,-22.79 1.92,-1.25 3.86,20.22 7.96,20.19 2.41,-0.01 7.46,-22.43 8.8,-21.31 2.9,2.45 -0.82,10.5 3.91,8.38 21.39,-9.59 -8.1,7.64 -8.69,8.86 2.63,0.97 13.53,-2.55 -4.07,6.09"/>
  </g>
  <ellipse class="fil9 str16" cx="927.81" cy="4163.19" rx="19.85" ry="20.4"/>
  <ellipse class="fil9 str16" cx="2039.06" cy="4166.61" rx="19.85" ry="20.4"/>
  <ellipse class="fil9 str16" cx="2719.05" cy="4151.48" rx="19.85" ry="20.4"/>
  <ellipse class="fil9 str16" cx="3855.44" cy="4158.65" rx="19.85" ry="20.4"/>
  <ellipse class="fil9 str16" cx="3854.11" cy="3700.92" rx="19.85" ry="20.4"/>
  <ellipse class="fil9 str16" cx="2711.11" cy="3708.09" rx="19.85" ry="20.4"/>
  <line class="fil1 str10" x1="739.95" y1="3378.09" x2="4087.41" y2= "3378.09" />
 </g>
</svg>
