<svg id="icons" enable-background="new 0 0 64 64" height="512" viewBox="0 0 64 64" width="512" xmlns="http://www.w3.org/2000/svg"><path d="m21.99 41.72-3.17-8.45.17-.06 2.13-3.24 1.41 2.45 3.231-4.311.638 5.351 2.452-1.41.189 3.149v.011l-6.9 6.42-.119.12z" fill="#94c1ff"/><path d="m15.591 48.649-3.151-.189 1.411-2.45-5.351-.641 4.31-3.229-2.45-1.411 3.241-2.129.009-.02 8.38 3.14.031.03-6.42 6.899z" fill="#94c1ff"/><path d="m17.75 30.409 1.07 2.861 3.17 8.45-8.38-3.14-2.929-1.101-1.421-2.83h2.831l-2.12-4.95 4.949 2.12v-2.83z" fill="#d7e9ff"/><path d="m51.91 34.649h2.83l-1.42 2.83-2.93 1.101-8.38 3.14 3.17-8.45 1.07-2.861 2.83-1.42v2.83l4.95-2.12z" fill="#d7e9ff"/><path d="m43.38 21.729 2.74.741-1.23 1.86h-.01l-12.83 1.659-.02-.04 7.85-10.279 2.24-.13-.73 2.73 4.461-.27z" fill="#94c1ff"/><path d="m55.5 45.369-5.35.641 1.411 2.45-3.151.189h-.01l-6.42-6.899.03-.03 8.38-3.14.01.02 3.23 2.129-2.45 1.411z" fill="#94c1ff"/><path d="m42.88 29.97 2.13 3.24.17.06-3.17 8.45-.03.03-.12-.12-6.9-6.42v-.011l.189-3.149 2.452 1.41.639-5.351 3.22 4.311z" fill="#94c1ff"/><path d="m37 5 2 3-6.989 17.939-.091-.129-6.93-17.81 2-3 2 2 3-6 3.01 6z" fill="#d7e9ff"/><path d="m19.17 24.33h-.01l-1.229-1.86 2.739-.741-2.47-3.729 4.46.27-.729-2.73 2.239.13 7.75 10.14.07.179z" fill="#94c1ff"/><g fill="#116fff"><path d="m31.995 27.004c-.4 0-.778-.242-.932-.638l-7.002-17.998c-.2-.515.055-1.094.569-1.294.515-.202 1.095.055 1.294.569l7.003 17.998c.2.515-.055 1.094-.569 1.294-.12.047-.242.069-.363.069z"/><path d="m31.995 27.004c-.121 0-.243-.021-.362-.068-.515-.2-.77-.779-.569-1.294l7.004-17.996c.2-.515.779-.772 1.294-.569.515.2.77.779.569 1.294l-7.004 17.996c-.154.395-.531.637-.932.637z"/><path d="m24.991 9.006c-.19 0-.383-.055-.554-.168-.459-.306-.584-.927-.277-1.387l2.001-3.004c.305-.46.925-.584 1.387-.277.459.306.584.927.277 1.387l-2.001 3.004c-.192.289-.51.445-.833.445z"/><path d="m28.994 8.002c-.256 0-.512-.098-.707-.293l-2.001-2c-.391-.391-.391-1.023 0-1.414s1.023-.391 1.414 0l2.001 2c.391.391.391 1.023 0 1.414-.195.195-.451.293-.707.293z"/><path d="m34.996 8.004c-.256 0-.512-.098-.707-.293-.391-.391-.391-1.023 0-1.414l2.001-2.002c.391-.391 1.023-.391 1.414 0s.391 1.023 0 1.414l-2.001 2.002c-.195.195-.451.293-.707.293z"/><path d="m38.999 9.002c-.323 0-.641-.156-.833-.445l-2.001-3c-.307-.459-.183-1.08.277-1.387.458-.307 1.081-.183 1.387.277l2.001 3c.307.459.183 1.08-.277 1.387-.17.113-.364.168-.554.168z"/><path d="m28.993 8.002c-.15 0-.303-.034-.446-.105-.494-.247-.694-.848-.447-1.342l3.001-6.002c.248-.494.848-.693 1.342-.447.494.247.694.848.447 1.342l-3.001 6.002c-.176.35-.529.552-.896.552z"/><path d="m34.997 8.004c-.367 0-.721-.202-.896-.553l-3.001-6.004c-.247-.494-.047-1.095.447-1.342.494-.246 1.096-.047 1.342.447l3.001 6.004c.247.494.047 1.095-.447 1.342-.143.072-.296.106-.446.106z"/><path d="m42.013 42.719c-.117 0-.235-.021-.351-.063-.518-.193-.779-.771-.586-1.287l4.236-11.309c.194-.517.774-.778 1.287-.586.518.193.779.771.586 1.287l-4.236 11.309c-.15.401-.531.649-.936.649z"/><path d="m42.013 42.719c-.405 0-.786-.248-.937-.649-.193-.518.068-1.094.586-1.287l11.308-4.234c.518-.192 1.094.069 1.287.586.193.518-.068 1.094-.586 1.287l-11.308 4.234c-.115.042-.234.063-.35.063z"/><path d="m46.25 31.41c-.367 0-.72-.202-.896-.552-.247-.494-.047-1.095.446-1.343l2.831-1.418c.497-.245 1.095-.047 1.343.446.247.494.047 1.095-.446 1.343l-2.831 1.418c-.144.072-.297.106-.447.106z"/><path d="m49.081 32.822c-.552 0-1-.447-1-1l-.001-2.83c0-.552.447-1 1-1 .552 0 1 .447 1 1l.001 2.83c0 .552-.447 1-1 1z"/><path d="m51.907 35.652c-.552 0-1-.447-1-.999 0-.553.447-1.001.999-1.001l2.831-.002h.001c.552 0 1 .447 1 .999 0 .553-.447 1.001-.999 1.001z"/><path d="m53.322 38.48c-.15 0-.303-.034-.446-.105-.494-.247-.694-.848-.447-1.342l1.415-2.83c.248-.494.848-.692 1.342-.447.494.247.694.848.447 1.342l-1.415 2.83c-.176.35-.529.552-.896.552z"/><path d="m49.081 32.822c-.388 0-.757-.227-.919-.606-.218-.507.018-1.095.525-1.313l4.949-2.121c.504-.221 1.095.017 1.313.525.218.507-.018 1.095-.525 1.313l-4.949 2.121c-.128.056-.262.081-.394.081z"/><path d="m51.907 35.652c-.132 0-.266-.025-.395-.081-.507-.218-.742-.806-.524-1.313l2.123-4.951c.218-.508.805-.744 1.313-.524.507.218.742.806.524 1.313l-2.123 4.951c-.161.379-.53.605-.918.605z"/><path d="m48.401 49.65c-.268 0-.535-.107-.732-.318l-6.422-6.9c-.376-.404-.354-1.037.051-1.414.405-.375 1.037-.353 1.414.051l6.422 6.9c.376.404.354 1.037-.051 1.414-.193.179-.437.267-.682.267z"/><path d="m53.634 41.732c-.188 0-.38-.054-.549-.165l-3.233-2.131c-.462-.304-.589-.924-.285-1.385.305-.461.925-.588 1.385-.285l3.233 2.131c.462.304.589.924.285 1.385-.193.292-.511.45-.836.45z"/><path d="m51.187 43.146c-.346 0-.682-.179-.867-.5-.276-.479-.112-1.09.366-1.366l2.449-1.414c.476-.276 1.089-.113 1.366.366.276.479.112 1.09-.366 1.366l-2.449 1.414c-.158.092-.33.134-.499.134z"/><path d="m51.564 49.461c-.346 0-.682-.179-.866-.499l-1.417-2.449c-.277-.479-.113-1.09.364-1.366.479-.28 1.091-.114 1.366.364l1.417 2.449c.277.479.113 1.09-.364 1.366-.158.092-.33.135-.5.135z"/><path d="m48.405 49.65c-.524 0-.966-.409-.997-.94-.033-.551.387-1.024.938-1.058l3.157-.189c.55-.021 1.025.387 1.058.938s-.387 1.024-.938 1.058l-3.157.189c-.021.001-.04.002-.061.002z"/><path d="m55.496 46.373c-.208 0-.418-.064-.599-.199l-4.312-3.227c-.441-.331-.532-.958-.201-1.4.33-.439.954-.533 1.4-.201l4.312 3.227c.441.331.532.958.201 1.4-.195.261-.496.4-.801.4z"/><path d="m50.146 47.012c-.5 0-.932-.373-.992-.882-.065-.548.326-1.046.875-1.111l5.351-.639c.55-.067 1.046.326 1.111.875.065.548-.326 1.046-.875 1.111l-5.351.639c-.04.005-.08.007-.119.007z"/><path d="m41.862 42.633c-.244 0-.488-.089-.682-.268l-6.899-6.422c-.404-.377-.427-1.01-.051-1.414.378-.402 1.009-.425 1.414-.051l6.899 6.422c.404.377.427 1.01.051 1.414-.197.211-.464.319-.732.319z"/><path d="m45.013 34.211c-.325 0-.644-.158-.836-.449l-2.131-3.232c-.304-.462-.177-1.082.284-1.386.464-.303 1.082-.175 1.386.284l2.131 3.232c.304.462.177 1.082-.284 1.386-.17.111-.362.165-.55.165z"/><path d="m41.465 33.428c-.17 0-.342-.043-.499-.134-.479-.276-.643-.889-.366-1.366l1.415-2.449c.276-.479.888-.643 1.366-.366s.643.889.366 1.366l-1.415 2.449c-.186.321-.521.5-.867.5z"/><path d="m37.601 34.467c-.17 0-.343-.043-.5-.135l-2.449-1.418c-.478-.276-.642-.889-.364-1.366.276-.479.889-.644 1.366-.364l2.449 1.418c.478.276.642.889.364 1.366-.186.32-.522.499-.866.499z"/><path d="m34.963 36.207c-.021 0-.041-.001-.062-.002-.551-.033-.971-.507-.938-1.059l.19-3.158c.034-.551.513-.96 1.059-.938.551.033.971.507.938 1.059l-.19 3.158c-.032.531-.473.94-.997.94z"/><path d="m41.467 33.428c-.305 0-.605-.139-.802-.401l-3.226-4.313c-.331-.442-.24-1.068.202-1.399.443-.332 1.068-.24 1.399.202l3.226 4.313c.331.442.24 1.068-.202 1.399-.179.134-.389.199-.597.199z"/><path d="m37.603 34.467c-.039 0-.079-.002-.119-.007-.549-.065-.94-.563-.875-1.111l.639-5.352c.065-.548.558-.939 1.111-.875.549.065.94.563.875 1.111l-.639 5.352c-.061.509-.492.882-.992.882z"/><path d="m31.994 27.004c-.212 0-.425-.066-.606-.205-.438-.336-.522-.963-.188-1.402l7.891-10.33c.337-.438.963-.522 1.402-.188.438.336.522.963.188 1.402l-7.891 10.33c-.197.257-.495.393-.796.393z"/><path d="m31.994 27.004c-.495 0-.926-.367-.991-.872-.07-.548.316-1.049.864-1.12l12.891-1.666c.548-.063 1.049.316 1.12.864.07.548-.316 1.049-.864 1.12l-12.891 1.666c-.043.005-.087.008-.129.008z"/><path d="m39.885 16.674c-.524 0-.965-.409-.997-.939-.033-.552.387-1.025.938-1.059l2.234-.135c.549-.015 1.025.387 1.059.938.033.552-.387 1.025-.938 1.059l-2.234.135c-.021 0-.042.001-.062.001z"/><path d="m41.391 19.271c-.086 0-.173-.011-.259-.034-.534-.143-.851-.69-.708-1.224l.73-2.732c.143-.534.698-.85 1.224-.708.534.143.851.69.708 1.224l-.73 2.732c-.12.448-.524.742-.965.742z"/><path d="m46.123 23.469c-.086 0-.173-.011-.259-.034l-2.736-.73c-.534-.143-.851-.69-.708-1.224s.697-.85 1.224-.708l2.736.73c.534.143.851.69.708 1.224-.119.447-.524.742-.965.742z"/><path d="m44.889 25.334c-.189 0-.381-.054-.55-.166-.461-.304-.588-.925-.283-1.385l1.232-1.866c.305-.462.926-.587 1.385-.282.461.304.588.925.283 1.385l-1.232 1.866c-.193.291-.511.448-.835.448z"/><path d="m41.389 19.271c-.524 0-.966-.409-.997-.94-.033-.551.387-1.024.938-1.058l4.463-.268c.552-.015 1.025.387 1.058.938s-.387 1.024-.938 1.058l-4.463.268c-.021.002-.041.002-.061.002z"/><path d="m43.385 22.738c-.189 0-.381-.054-.55-.166-.461-.304-.588-.925-.283-1.385l2.467-3.734c.303-.462.926-.589 1.385-.283.461.304.588.925.283 1.385l-2.467 3.734c-.192.291-.511.449-.835.449z"/><path d="m32.06 27.004c-.302 0-.599-.136-.796-.393l-7.891-10.33c-.335-.439-.251-1.066.188-1.402.441-.335 1.067-.249 1.402.188l7.891 10.33c.335.439.251 1.066-.188 1.402-.182.138-.395.205-.606.205z"/><path d="m32.06 27.004c-.042 0-.086-.003-.129-.008l-12.891-1.666c-.548-.071-.935-.572-.864-1.12s.572-.924 1.12-.864l12.891 1.666c.548.071.935.572.864 1.12-.066.505-.496.872-.991.872z"/><path d="m24.169 16.674c-.021 0-.041-.001-.062-.002l-2.234-.135c-.551-.033-.971-.507-.938-1.059.033-.551.523-.953 1.059-.938l2.234.135c.551.033.971.507.938 1.059-.032.531-.473.94-.997.94z"/><path d="m22.663 19.271c-.441 0-.846-.295-.965-.742l-.73-2.732c-.143-.533.174-1.081.708-1.224.526-.142 1.081.174 1.224.708l.73 2.732c.143.533-.174 1.081-.708 1.224-.086.024-.173.034-.259.034z"/><path d="m17.931 23.469c-.441 0-.846-.295-.965-.742-.143-.533.174-1.081.708-1.224l2.736-.73c.528-.142 1.082.174 1.224.708.143.533-.174 1.081-.708 1.224l-2.736.73c-.086.023-.173.034-.259.034z"/><path d="m19.165 25.334c-.324 0-.643-.157-.835-.448l-1.232-1.866c-.305-.46-.178-1.081.283-1.385.457-.305 1.079-.18 1.385.282l1.232 1.866c.305.46.178 1.081-.283 1.385-.169.112-.361.166-.55.166z"/><path d="m22.665 19.271c-.021 0-.04-.001-.061-.002l-4.463-.268c-.552-.033-.972-.507-.938-1.058.032-.552.52-.954 1.058-.938l4.463.268c.552.033.972.507.938 1.058-.031.531-.473.94-.997.94z"/><path d="m20.669 22.738c-.324 0-.643-.157-.835-.449l-2.467-3.734c-.305-.46-.178-1.081.283-1.385.458-.306 1.08-.18 1.385.283l2.467 3.734c.305.46.178 1.081-.283 1.385-.169.113-.361.166-.55.166z"/><path d="m31.995 64c-.553 0-1-.447-1-1v-36.996c0-.553.447-1 1-1s1 .447 1 1v36.996c0 .553-.447 1-1 1z"/><path d="m32 52.561c-.259 0-.518-.1-.713-.299-.388-.394-.382-1.027.012-1.414l10.01-9.841c.393-.389 1.027-.383 1.414.012.388.394.382 1.027-.012 1.414l-10.01 9.841c-.194.191-.448.287-.701.287z"/><path d="m21.987 42.719c-.405 0-.786-.248-.937-.649l-4.236-11.309c-.193-.517.068-1.094.586-1.287.517-.193 1.094.069 1.287.586l4.236 11.309c.193.517-.068 1.094-.586 1.287-.114.042-.233.063-.35.063z"/><path d="m21.987 42.719c-.116 0-.235-.021-.351-.063l-11.308-4.234c-.518-.193-.779-.77-.586-1.287s.771-.778 1.287-.586l11.308 4.234c.518.193.779.77.586 1.287-.15.401-.53.649-.936.649z"/><path d="m17.75 31.41c-.15 0-.303-.034-.447-.105l-2.831-1.418c-.493-.248-.693-.849-.446-1.343.248-.493.846-.691 1.343-.446l2.831 1.418c.493.248.693.849.446 1.343-.176.349-.529.551-.896.551z"/><path d="m14.919 32.822c-.553 0-1-.448-1-1l.001-2.83c0-.553.448-1 1-1 .553 0 1 .448 1 1l-.001 2.83c0 .553-.448 1-1 1z"/><path d="m12.093 35.652-2.832-.002c-.552 0-.999-.448-.999-1.001 0-.552.448-.999 1-.999h.001l2.831.002c.552 0 .999.448.999 1.001 0 .552-.448.999-1 .999z"/><path d="m10.678 38.48c-.367 0-.72-.202-.896-.553l-1.415-2.83c-.247-.494-.047-1.095.447-1.342.494-.245 1.094-.047 1.342.447l1.415 2.83c.247.494.047 1.095-.447 1.342-.144.072-.296.106-.446.106z"/><path d="m14.919 32.822c-.132 0-.266-.025-.394-.081l-4.949-2.121c-.508-.218-.743-.806-.525-1.313.218-.509.808-.745 1.313-.525l4.949 2.121c.508.218.743.806.525 1.313-.162.38-.531.606-.919.606z"/><path d="m12.093 35.652c-.388 0-.757-.227-.919-.605l-2.123-4.951c-.218-.508.017-1.096.524-1.314.507-.221 1.096.017 1.313.524l2.123 4.951c.218.508-.018 1.096-.524 1.313-.129.057-.262.082-.394.082z"/><path d="m15.599 49.65c-.244 0-.488-.089-.682-.268-.404-.377-.427-1.01-.051-1.414l6.422-6.9c.378-.403 1.009-.425 1.414-.051.404.377.427 1.01.051 1.414l-6.422 6.9c-.197.212-.465.319-.732.319z"/><path d="m10.366 41.732c-.325 0-.644-.158-.836-.45-.304-.461-.177-1.081.285-1.385l3.233-2.131c.462-.303 1.081-.176 1.385.285s.177 1.081-.285 1.385l-3.233 2.131c-.169.112-.36.165-.549.165z"/><path d="m12.813 43.146c-.17 0-.342-.043-.499-.134l-2.449-1.414c-.479-.276-.643-.888-.366-1.366.277-.479.888-.643 1.366-.366l2.449 1.414c.479.276.643.888.366 1.366-.185.321-.521.5-.867.5z"/><path d="m12.436 49.461c-.17 0-.342-.043-.5-.135-.478-.276-.642-.888-.364-1.366l1.417-2.449c.274-.479.885-.645 1.366-.364.478.276.642.888.364 1.366l-1.417 2.449c-.185.32-.521.499-.866.499z"/><path d="m15.595 49.65c-.021 0-.04-.001-.061-.002l-3.157-.189c-.552-.033-.972-.507-.938-1.058.032-.552.511-.96 1.058-.938l3.157.189c.552.033.972.507.938 1.058-.031.531-.473.94-.997.94z"/><path d="m8.504 46.373c-.305 0-.605-.139-.802-.4-.331-.442-.24-1.069.201-1.4l4.312-3.227c.442-.332 1.07-.238 1.4.201.331.442.24 1.069-.201 1.4l-4.312 3.227c-.179.135-.39.199-.598.199z"/><path d="m13.854 47.012c-.039 0-.079-.002-.119-.007l-5.351-.639c-.549-.065-.94-.563-.875-1.111.065-.549.559-.94 1.111-.875l5.351.639c.549.065.94.563.875 1.111-.06.509-.492.882-.992.882z"/><path d="m22.138 42.633c-.268 0-.535-.107-.732-.318-.376-.404-.354-1.037.051-1.414l6.899-6.422c.405-.375 1.037-.352 1.414.051.376.404.354 1.037-.051 1.414l-6.899 6.422c-.194.178-.438.267-.682.267z"/><path d="m18.987 34.211c-.188 0-.38-.054-.55-.165-.461-.304-.588-.924-.284-1.386l2.131-3.232c.305-.459.924-.587 1.386-.284.461.304.588.924.284 1.386l-2.131 3.232c-.192.291-.51.449-.836.449z"/><path d="m22.535 33.428c-.346 0-.682-.179-.867-.5l-1.415-2.449c-.276-.478-.112-1.09.366-1.366.476-.276 1.089-.113 1.366.366l1.415 2.449c.276.478.112 1.09-.366 1.366-.157.091-.329.134-.499.134z"/><path d="m26.399 34.467c-.346 0-.681-.179-.866-.499-.277-.478-.113-1.09.364-1.366l2.449-1.418c.477-.279 1.089-.113 1.366.364s.113 1.09-.364 1.366l-2.449 1.418c-.157.092-.33.135-.5.135z"/><path d="m29.037 36.207c-.524 0-.965-.409-.997-.939l-.19-3.158c-.033-.552.387-1.025.938-1.059.549-.021 1.025.387 1.059.938l.19 3.158c.033.552-.387 1.025-.938 1.059-.021 0-.041.001-.062.001z"/><path d="m22.533 33.428c-.208 0-.418-.064-.598-.199-.442-.331-.533-.957-.202-1.399l3.226-4.313c.331-.442.956-.534 1.399-.202.442.331.533.957.202 1.399l-3.226 4.313c-.195.262-.496.401-.801.401z"/><path d="m26.397 34.467c-.5 0-.932-.373-.992-.882l-.639-5.352c-.065-.548.326-1.046.875-1.111.551-.066 1.046.326 1.111.875l.639 5.352c.065.548-.326 1.046-.875 1.111-.039.005-.079.007-.119.007z"/><path d="m32 52.561c-.253 0-.506-.096-.701-.287l-9.979-9.811c-.394-.387-.399-1.021-.012-1.414.386-.394 1.019-.399 1.414-.012l9.979 9.811c.394.387.399 1.021.012 1.414-.195.199-.454.299-.713.299z"/></g></svg>