<?xml version="1.0" encoding="iso-8859-1"?>
<!-- Generator: Adobe Illustrator 19.0.0, SVG Export Plug-In . SVG Version: 6.00 Build 0)  -->
<svg version="1.1" id="Capa_1" xmlns="http://www.w3.org/2000/svg" xmlns:xlink="http://www.w3.org/1999/xlink" x="0px" y="0px"
	 viewBox="0 0 511.996 511.996" style="enable-background:new 0 0 511.996 511.996;" xml:space="preserve">
<path style="fill:#A5DC69;" d="M232.365,282.492l-18.174,11.616c-4.9,3.132-11.378,2.713-15.795-1.022l0,0
	c-5.245-4.434-5.903-12.059-1.488-17.262l20.212-23.818c8.889-10.475,7.052-25.924-4.066-34.205
	c-13.024-9.701-32.087-4.884-38.453,9.716l-1.237,2.836c-3.05,6.994-12.262,9.18-18.353,4.354l0,0
	c-3.623-2.869-5.124-7.532-3.819-11.864l9.76-32.411c2.851-9.47-2.797-19.374-12.641-22.166l0,0
	c-9.014-2.556-18.601,1.725-22.375,9.992l-6.881,15.073c-1.654,3.625-7.089,3.393-8.402-0.358l-9.377-26.78
	c-3.093-8.831-9.282-16.129-17.245-20.846c-18.433,48.036-9.026,115.247,29.331,175.135c23.924,37.353,55.146,65.67,87.713,82.504
	c-6.799-26.368,1.562-54.935,23.25-74.03l26.742-23.545c6.255-5.508,6.606-14.867,0.778-20.791
	C246.757,279.45,238.531,278.551,232.365,282.492z"/>
<path style="fill:#FFFFFF;" d="M231.655,181.385c1.496-58.549,22.034-110.205,52.803-143.057
	c-0.462-8.032-4.595-15.537-11.407-20.422l0,0c-10.115-7.254-23.995-7.254-34.111,0l0,0c-7.805,5.596-12.094,14.631-11.374,23.96
	l3.276,42.453l-16.85-22.442c-5.989-7.976-18.052-8.761-25.106-1.635c-6.195,6.259-5.963,16.148,0.519,22.133l28.05,25.896
	c3.479,3.211,4.637,8.101,2.949,12.441c-2.839,7.299-12.205,9.899-18.661,5.18l-8.955-6.546c-9.789-7.155-24.007-2.594-27.351,8.774
	l0,0c-1.8,6.116,0.158,12.682,5.055,16.955l44.764,39.06c4.916,4.289,5.31,11.583,0.884,16.338
	c-4.662,5.011-12.767,5.187-17.661,0.385l-17.678-17.34c-11.166-10.953-30.401-7.033-35.973,7.33l0,0
	c-3.545,9.139-0.043,19.419,8.442,24.778l38.18,24.113c0,0-0.549-0.268-1.482-0.726c-11.53-5.646-25.518,0.634-28.42,12.843
	l-0.126,0.533c-2.311,9.722,3.846,19.448,13.898,21.952l17.735,4.419c37.06,9.23,62.937,41.35,62.937,78.118
	c0.673-14.725,5.256-28.599,12.846-40.604C244.706,282.144,230.306,234.171,231.655,181.385z"/>
<path style="fill:#D7FA91;" d="M322.609,277.844l14.062-3.502c10.052-2.504,16.209-12.229,13.898-21.952l-0.127-0.533
	c-2.902-12.209-16.89-18.489-28.42-12.843c-0.933,0.456-1.482,0.726-1.482,0.726l38.18-24.113
	c8.485-5.359,11.988-15.639,8.442-24.778l0,0c-5.572-14.364-24.807-18.283-35.973-7.33l-17.678,17.34
	c-4.895,4.802-12.999,4.625-17.661-0.385c-4.426-4.755-4.032-12.049,0.884-16.338l44.764-39.06
	c4.898-4.273,6.855-10.84,5.055-16.955l0,0c-3.345-11.368-17.564-15.929-27.351-8.774l-8.955,6.546
	c-6.456,4.719-15.822,2.119-18.661-5.18c-1.688-4.341-0.53-9.23,2.949-12.441l28.05-25.896c6.482-5.985,6.715-15.874,0.519-22.133
	c-7.054-7.127-19.118-6.342-25.106,1.635L281.15,84.32l3.276-42.453c0.091-1.186,0.1-2.368,0.033-3.538
	c-30.769,32.852-51.307,84.508-52.803,143.057c-1.348,52.786,13.051,100.759,37.187,134.888
	C280.6,297.676,299.594,283.577,322.609,277.844z"/>
<path style="fill:#A5DC69;" d="M448.408,389.005L448.408,389.005c2.121-6.817-1.182-14.108-7.82-17.266l-19.563-9.307
	c-5.273-2.509-8.134-8.107-6.976-13.648c1.376-6.58,7.923-10.939,14.822-9.868l31.584,4.902
	c13.891,2.155,26.904-7.097,28.813-20.484l0,0c2.236-15.683-11.639-29.129-27.989-27.124l-3.175,0.389
	c-7.832,0.96-14.409-5.609-13.103-13.087c0.776-4.447,4.231-8.027,8.79-9.108l34.108-8.088c9.966-2.363,16.073-12.012,13.668-21.596
	c-2.202-8.775-10.856-14.608-20.197-13.613l-17.033,1.814c-4.096,0.437-6.604-4.199-3.878-7.167l19.461-21.188
	c10.27-11.182,13.034-26.994,7.128-40.784l0,0c-0.302-0.705-0.63-1.392-0.969-2.072c-41.906,14.275-83.765,48.832-112.991,98.007
	c-26.039,43.813-37.089,90.888-33.892,131.492c17.044-7.204,36.681-8.609,55.472-2.924l34.603,10.468
	C437.363,401.202,445.979,396.814,448.408,389.005z"/>
<path d="M325.002,287.452l14.062-3.503c15.193-3.783,24.674-18.967,21.138-33.849l-0.127-0.53
	c-1.563-6.58-5.337-12.303-10.658-16.356l14.59-9.215c12.397-7.829,17.605-23.276,12.387-36.73
	c-3.788-9.764-12.302-16.943-22.774-19.202c-10.685-2.304-21.661,0.83-29.362,8.385l-17.677,17.341
	c-0.604,0.592-1.348,0.664-1.771,0.656c-0.396-0.009-1.146-0.115-1.71-0.72c-0.301-0.323-0.442-0.679-0.423-1.06
	c0.021-0.4,0.213-0.761,0.569-1.072l44.762-39.06c7.759-6.77,10.917-17.45,8.045-27.211c-2.448-8.319-8.916-14.982-17.3-17.822
	c-8.609-2.917-18.102-1.478-25.392,3.85l-8.955,6.546c-0.894,0.652-1.86,0.468-2.232,0.359c-0.387-0.113-1.077-0.411-1.359-1.137
	c-0.21-0.54-0.047-1.129,0.438-1.576l28.05-25.897c5.13-4.736,8.04-11.138,8.196-18.028c0.154-6.879-2.457-13.394-7.357-18.343
	c-5.403-5.458-12.951-8.281-20.717-7.755c-5.966,0.407-11.531,2.765-15.862,6.625l0.735-9.52
	c0.991-12.858-4.795-25.107-15.477-32.767c-13.652-9.79-31.997-9.79-45.649,0c-10.682,7.659-16.468,19.908-15.477,32.767
	l0.735,9.519c-4.331-3.86-9.896-6.219-15.862-6.625c-7.76-0.532-15.314,2.297-20.718,7.756c-4.898,4.949-7.511,11.464-7.356,18.343
	c0.155,6.89,3.066,13.293,8.196,18.029l28.05,25.896c0.484,0.448,0.648,1.037,0.437,1.578c-0.281,0.724-0.971,1.022-1.358,1.135
	c-0.373,0.109-1.339,0.293-2.232-0.359l-8.955-6.546c-7.29-5.328-16.784-6.768-25.392-3.85c-8.385,2.84-14.852,9.504-17.301,17.823
	c-2.871,9.76,0.287,20.441,8.045,27.21l44.764,39.061c0.355,0.311,0.548,0.672,0.568,1.072c0.02,0.381-0.122,0.738-0.423,1.06
	c-0.562,0.605-1.313,0.71-1.71,0.72c-0.424,0.007-1.168-0.064-1.771-0.656l-17.677-17.341c-7.701-7.555-18.677-10.691-29.362-8.385
	c-10.473,2.259-18.986,9.438-22.774,19.202c-5.219,13.454-0.01,28.901,12.387,36.729l14.59,9.215
	c-5.321,4.053-9.095,9.776-10.658,16.353l-0.127,0.535c-3.537,14.881,5.945,30.064,21.138,33.847l17.737,4.418
	c32.636,8.129,55.43,36.302,55.43,68.511v142.699c0,5.467,4.434,9.901,9.901,9.901c5.467,0,9.901-4.434,9.901-9.901V357.171
	C267.491,323.871,291.222,295.864,325.002,287.452z M195.451,269.153l-17.737-4.418c-4.791-1.193-7.716-5.61-6.66-10.052
	l0.127-0.536c0.892-3.752,3.669-5.56,5.246-6.304c1.442-0.681,2.986-1.021,4.528-1.021c1.592,0,3.185,0.362,4.664,1.087l1.472,0.722
	c4.724,2.315,10.435,0.533,13.002-4.06c2.566-4.593,1.093-10.392-3.356-13.201l-38.179-24.114c-4.48-2.83-6.331-8.105-4.499-12.826
	c1.392-3.59,4.486-6.144,8.489-7.008c4.156-0.896,8.387,0.287,11.32,3.164l17.677,17.341c4.231,4.15,10.055,6.444,16.089,6.317
	c5.983-0.137,11.725-2.697,15.754-7.024c3.977-4.272,6.002-9.805,5.702-15.578c-0.301-5.792-2.902-11.107-7.324-14.965
	l-44.764-39.061c-1.982-1.73-2.775-4.297-2.068-6.7c0.91-3.089,3.561-4.287,4.658-4.659c1.207-0.409,4.339-1.122,7.354,1.082
	l8.955,6.546c5.635,4.118,12.733,5.351,19.473,3.379c6.61-1.932,11.807-6.657,14.257-12.962c3.177-8.164,1.034-17.311-5.46-23.306
	l-28.05-25.896c-1.147-1.06-1.798-2.454-1.832-3.927c-0.033-1.461,0.548-2.87,1.632-3.966c1.35-1.364,3.281-2.063,5.298-1.931
	c1.973,0.135,3.742,1.062,4.855,2.543l16.85,22.442c2.642,3.52,7.293,4.872,11.409,3.321c4.119-1.552,6.718-5.637,6.379-10.025
	l-3.276-42.453c-0.455-5.897,2.263-11.561,7.272-15.153c6.644-4.765,15.928-4.765,22.572,0c5.009,3.591,7.727,9.256,7.272,15.152
	l-3.276,42.454c-0.339,4.388,2.26,8.473,6.379,10.025c4.12,1.552,8.767,0.199,11.409-3.321l16.85-22.442
	c1.113-1.482,2.882-2.41,4.855-2.544c2.005-0.135,3.945,0.566,5.297,1.931c1.086,1.097,1.666,2.506,1.633,3.967
	c-0.033,1.472-0.683,2.866-1.832,3.926l-28.05,25.896c-6.494,5.995-8.637,15.142-5.461,23.304
	c2.452,6.308,7.649,11.032,14.258,12.964c6.741,1.97,13.839,0.739,19.473-3.379l8.955-6.546c3.016-2.204,6.147-1.49,7.354-1.082
	c1.097,0.372,3.748,1.57,4.657,4.658c0.708,2.403-0.085,4.971-2.068,6.701l-44.762,39.06c-4.424,3.859-7.025,9.174-7.324,14.966
	c-0.3,5.773,1.725,11.306,5.702,15.578c4.029,4.329,9.771,6.889,15.754,7.025c6.027,0.145,11.858-2.166,16.089-6.317l17.677-17.341
	c2.934-2.877,7.169-4.059,11.32-3.164c4.003,0.863,7.097,3.418,8.489,7.008c1.833,4.723-0.019,9.997-4.499,12.827l-38.179,24.113
	c-4.448,2.809-5.922,8.608-3.356,13.201c2.566,4.594,8.277,6.374,13.001,4.06l1.477-0.723c2.909-1.425,6.257-1.447,9.187-0.063
	c1.577,0.744,4.353,2.552,5.246,6.307l0.127,0.53c1.055,4.445-1.869,8.862-6.66,10.055l-14.062,3.502
	c-20.616,5.135-38.612,16.272-52.042,32.204c-0.781,0.927-1.536,1.869-2.277,2.818V149.998c0-5.468-4.434-9.901-9.901-9.901
	c-5.467,0-9.901,4.433-9.901,9.901v151.235C233.676,285.84,216.117,274.3,195.451,269.153z"/>
<path d="M109.714,274.09c-1.851,1.841-2.902,4.395-2.902,6.999c0,2.605,1.05,5.159,2.902,7c1.841,1.842,4.386,2.901,6.999,2.901
	c2.605,0,5.148-1.058,7-2.901c1.842-1.841,2.901-4.395,2.901-7c0-2.604-1.058-5.158-2.901-6.999c-1.851-1.842-4.395-2.902-7-2.902
	C114.11,271.188,111.555,272.248,109.714,274.09z"/>
<path d="M511.169,242.31c-3.391-13.51-16.669-22.556-30.848-21.048l-2.542,0.27l9.433-10.27
	c12.818-13.958,16.327-34.124,8.937-51.378c-8.776-20.491-30.766-32.754-53.486-29.831c-19.24,2.479-35.062,15.075-41.292,32.868
	l-9.378,26.779c-1.807,5.161,0.912,10.81,6.073,12.616c5.161,1.81,10.81-0.911,12.616-6.072l9.378-26.78
	c3.682-10.518,13.548-18.28,25.134-19.773c13.982-1.802,27.447,5.595,32.753,17.986c4.395,10.263,2.357,21.83-5.32,30.188
	l-19.46,21.188c-4.019,4.374-4.893,10.615-2.229,15.9c2.716,5.389,8.389,8.456,14.446,7.81l17.032-1.814
	c4.44-0.474,8.544,2.184,9.547,6.178c0.484,1.93,0.171,3.946-0.882,5.679c-1.18,1.943-3.123,3.319-5.468,3.875l-34.107,8.087
	c-8.418,1.997-14.799,8.684-16.258,17.039c-1.147,6.57,0.853,13.136,5.49,18.013c4.733,4.98,11.679,7.446,18.572,6.603l3.174-0.39
	c4.96-0.613,9.75,1.024,13.139,4.48c1.784,1.819,4.655,5.722,3.843,11.419c-0.52,3.654-2.512,6.93-5.606,9.223
	c-3.396,2.515-7.612,3.535-11.886,2.873l-31.584-4.901c-12.14-1.88-23.57,5.859-26.031,17.626
	c-2.094,10.018,3.01,20.14,12.413,24.614l19.563,9.307c2.203,1.048,3.28,3.262,2.62,5.384c-0.813,2.613-3.937,4.08-6.819,3.213
	l-34.603-10.468c-18.176-5.499-37.884-5.161-55.837,0.881l39.063-58.831c3.025-4.555,1.784-10.7-2.772-13.724
	c-4.553-3.025-10.7-1.784-13.724,2.772l-41.893,63.094c-1.794-12.364-6.417-24.435-13.873-35.346
	c-3.086-4.517-9.247-5.672-13.76-2.589c-4.516,3.085-5.673,9.246-2.589,13.76c13.006,19.034,14.767,42.676,5.065,63.076
	c-1.038,1.861-2.042,3.736-3.012,5.627c-0.005,0.009-0.01,0.018-0.016,0.027c-0.232,0.385-0.424,0.782-0.597,1.184
	c-12.646,25.121-19.26,52.687-19.26,80.839c0,5.467,4.434,9.901,9.901,9.901s9.901-4.434,9.901-9.901
	c0-25.217,5.983-49.915,17.399-72.412c16.178-26.255,49.806-38.62,80.269-29.403l34.603,10.468
	c13.298,4.027,27.413-3.28,31.459-16.283c3.604-11.586-1.872-23.844-13.02-29.147l-19.562-9.307c-1.143-0.544-1.76-1.621-1.54-2.68
	c0.298-1.427,1.914-2.378,3.613-2.112l31.583,4.901c9.539,1.481,19.027-0.839,26.711-6.531c7.381-5.468,12.148-13.402,13.422-22.34
	c1.469-10.312-1.923-20.545-9.309-28.076c-7.738-7.892-18.557-11.638-29.687-10.271l-3.174,0.39c-1.002,0.129-1.601-0.37-1.808-0.59
	c-0.428-0.449-0.361-0.826-0.338-0.967c0.095-0.539,0.626-1.012,1.322-1.176l34.106-8.088c7.539-1.788,13.869-6.354,17.821-12.858
	C511.829,256.798,512.953,249.417,511.169,242.31z"/>
<path d="M217.806,417.554c-0.005-0.009-0.01-0.019-0.016-0.028c-0.936-1.826-1.906-3.638-2.906-5.435
	c-9.877-20.758-7.825-45.437,5.782-64.442c3.183-4.445,2.16-10.63-2.287-13.813c-4.446-3.184-10.63-2.158-13.813,2.287
	c-8.036,11.224-12.981,23.964-14.821,37.062l-43.153-64.993c-3.027-4.558-9.172-5.796-13.724-2.772
	c-4.556,3.025-5.796,9.17-2.772,13.724l40.201,60.545c-17.954-6.043-37.661-6.38-55.837-0.881l-34.603,10.468
	c-2.886,0.874-6.005-0.599-6.819-3.213c-0.66-2.123,0.417-4.336,2.62-5.384l19.564-9.307c9.403-4.475,14.506-14.596,12.412-24.616
	c-2.461-11.766-13.899-19.504-26.031-17.624l-31.585,4.901c-4.269,0.664-8.49-0.358-11.885-2.873
	c-3.094-2.293-5.086-5.569-5.606-9.224c-0.812-5.697,2.059-9.6,3.843-11.418c3.389-3.455,8.181-5.09,13.138-4.48l3.176,0.39
	c6.905,0.844,13.839-1.623,18.571-6.603c4.636-4.878,6.637-11.444,5.49-18.013c-1.458-8.354-7.84-15.042-16.258-17.039
	l-34.108-8.087c-2.344-0.556-4.287-1.933-5.467-3.875c-1.052-1.733-1.366-3.749-0.882-5.678c1.003-3.996,5.098-6.655,9.547-6.179
	l17.032,1.814c6.069,0.646,11.73-2.421,14.446-7.81c2.664-5.285,1.79-11.526-2.228-15.9L39.368,197.87
	c-7.677-8.358-9.715-19.926-5.32-30.189c5.308-12.393,18.783-19.79,32.753-17.986c11.586,1.493,21.452,9.254,25.134,19.774
	l9.378,26.779c1.807,5.16,7.46,7.879,12.616,6.072c5.161-1.807,7.88-7.455,6.073-12.616l-9.378-26.778
	c-6.229-17.794-22.052-30.389-41.292-32.869c-22.704-2.927-44.711,9.338-53.486,29.83c-7.39,17.254-3.881,37.421,8.937,51.379
	l9.433,10.27l-2.542-0.27c-14.207-1.506-27.456,7.538-30.848,21.049c-1.784,7.107-0.659,14.488,3.166,20.781
	c3.952,6.504,10.282,11.071,17.82,12.858l34.107,8.088c0.696,0.164,1.227,0.639,1.322,1.176c0.024,0.142,0.09,0.517-0.338,0.967
	c-0.207,0.219-0.804,0.715-1.807,0.59l-3.176-0.39c-11.122-1.363-21.948,2.379-29.686,10.271
	c-7.386,7.531-10.779,17.765-9.309,28.075c1.274,8.938,6.041,16.873,13.422,22.341c7.684,5.693,17.17,8.014,26.71,6.531
	l31.584-4.901c1.694-0.268,3.315,0.685,3.613,2.11c0.222,1.061-0.396,2.139-1.539,2.682l-19.563,9.307
	c-11.149,5.304-16.624,17.562-13.02,29.147c4.046,13.002,18.155,20.305,31.459,16.283l34.603-10.468
	c30.463-9.216,64.092,3.147,80.269,29.403c11.416,22.497,17.399,47.195,17.399,72.412c0,5.467,4.434,9.901,9.901,9.901
	c5.467,0,9.901-4.434,9.901-9.901c0-28.151-6.614-55.718-19.26-80.839C218.23,418.337,218.038,417.939,217.806,417.554z"/>
<path d="M395.278,290.989c2.604,0,5.158-1.058,7-2.901c1.851-1.841,2.901-4.395,2.901-7c0-2.604-1.049-5.158-2.901-6.999
	c-1.841-1.842-4.387-2.902-7-2.902c-2.604,0-5.158,1.059-7,2.902c-1.841,1.841-2.901,4.395-2.901,6.999c0,2.605,1.059,5.159,2.901,7
	C390.119,289.931,392.674,290.989,395.278,290.989z"/>
<g>
</g>
<g>
</g>
<g>
</g>
<g>
</g>
<g>
</g>
<g>
</g>
<g>
</g>
<g>
</g>
<g>
</g>
<g>
</g>
<g>
</g>
<g>
</g>
<g>
</g>
<g>
</g>
<g>
</g>
</svg>
